<?xml version="1.0" standalone="no"?>
<!DOCTYPE svg PUBLIC "-//W3C//DTD SVG 20010904//EN"
 "http://www.w3.org/TR/2001/REC-SVG-20010904/DTD/svg10.dtd">
<svg version="1.0" xmlns="http://www.w3.org/2000/svg"
 width="640.000000pt" height="640.000000pt" viewBox="0 0 640.000000 640.000000"
 preserveAspectRatio="xMidYMid meet">
<metadata>
Created by potrace 1.11, written by Peter Selinger 2001-2013
</metadata>
<g transform="translate(0.000000,640.000000) scale(0.100000,-0.100000)"
fill="#000000" stroke="none">
<path d="M685 6363 c9 -21 20 -39 25 -41 6 -2 10 -10 10 -18 0 -8 9 -14 20
-14 11 0 20 -4 20 -10 0 -5 9 -10 20 -10 11 0 20 6 20 14 0 8 7 17 16 20 8 3
13 10 10 15 -8 12 4 41 16 41 10 0 38 -25 38 -34 0 -3 -8 -6 -17 -6 -17 -1
-17 -1 0 -14 23 -18 22 -38 -4 -54 -15 -10 -24 -11 -32 -3 -22 22 -27 9 -27
-79 0 -73 -3 -90 -15 -90 -11 0 -15 -11 -15 -40 0 -38 2 -40 30 -40 28 0 30
-2 30 -40 0 -29 -4 -40 -15 -40 -11 0 -15 -11 -15 -40 0 -29 4 -40 15 -40 11
0 15 -11 15 -40 0 -36 3 -40 25 -40 23 0 25 -4 25 -40 0 -23 5 -40 11 -40 6 0
20 -11 31 -25 14 -18 26 -24 40 -19 14 4 21 0 25 -15 3 -12 9 -21 14 -21 5 0
9 -27 9 -59 0 -57 -1 -59 -25 -56 -20 2 -25 -2 -25 -21 0 -15 6 -24 16 -24 17
0 14 -22 -4 -28 -7 -2 -12 3 -12 12 0 10 -9 16 -25 16 -22 0 -25 -4 -25 -40 0
-22 5 -40 10 -40 13 0 13 -77 0 -82 -6 -2 -13 -55 -17 -121 -5 -105 -4 -117
10 -117 13 0 17 -9 17 -40 0 -22 -5 -40 -10 -40 -6 0 -4 -16 5 -37 20 -47 24
-51 36 -33 6 10 7 5 3 -16 -3 -18 -1 -42 6 -54 10 -19 10 -22 -2 -17 -11 4
-14 -1 -10 -19 2 -13 8 -24 12 -24 5 0 12 -9 15 -20 3 -11 13 -20 21 -20 8 0
14 -7 14 -16 0 -8 5 -12 10 -9 6 3 10 -2 10 -12 1 -13 11 -7 40 26 50 54 70
95 70 139 0 31 2 33 16 21 15 -12 20 -9 43 21 14 19 36 45 49 58 15 15 22 35
22 60 0 25 3 32 9 23 6 -9 11 -10 15 -2 4 6 3 11 -3 11 -5 0 -12 8 -14 18 -4
16 -5 16 -6 0 0 -10 -5 -18 -11 -18 -6 0 -8 180 -6 506 3 498 3 506 -17 525
-11 10 -17 22 -14 26 4 3 7 1 7 -5 0 -7 9 -12 20 -12 18 0 20 -7 22 -82 l1
-83 7 85 c4 47 11 142 15 213 6 86 12 131 22 138 7 6 13 20 13 30 0 18 -14 19
-335 19 l-335 0 15 -37z m594 -195 c0 -53 -3 -66 -9 -46 -7 24 -2 118 6 118 2
0 4 -33 3 -72z m-299 -958 c0 -5 -4 -10 -10 -10 -5 0 -10 5 -10 10 0 6 5 10
10 10 6 0 10 -4 10 -10z"/>
<path d="M1489 6288 c0 -62 -3 -107 -6 -100 -2 6 -9 12 -14 12 -13 0 -11 -38
2 -42 6 -2 12 -89 14 -250 4 -204 2 -246 -9 -242 -16 6 -28 -19 -19 -42 3 -8
11 -13 18 -10 17 6 25 -75 21 -214 -4 -129 -4 -128 -16 -110 -8 12 -10 9 -10
-12 0 -18 5 -28 15 -28 9 0 15 -9 15 -25 0 -28 6 -31 23 -12 151 161 217 250
217 290 0 13 11 51 24 85 13 34 27 90 30 124 22 260 46 592 46 636 l0 52 -175
0 -175 0 -1 -112z"/>
<path d="M1926 6385 c-3 -9 -6 -35 -6 -58 0 -23 -7 -64 -15 -90 -8 -26 -15
-67 -16 -90 -2 -45 30 -178 45 -189 12 -8 1 -183 -18 -278 -31 -162 -31 -162
27 -103 20 20 37 33 37 28 0 -14 40 27 71 72 32 46 200 186 238 198 18 5 92
55 119 80 2 2 -16 -1 -40 -6 -24 -6 -44 -14 -46 -20 -5 -12 -32 -12 -32 0 0
10 -56 32 -63 25 -7 -7 -47 97 -47 125 -1 14 -12 44 -25 66 -14 22 -32 54 -42
70 -13 22 -18 51 -18 105 l0 75 -81 3 c-68 2 -83 0 -88 -13z m325 -485 c15 0
10 -17 -6 -24 -12 -4 -15 3 -14 32 1 23 3 29 6 15 2 -13 9 -23 14 -23z"/>
<path d="M2120 6394 c0 -3 7 -12 15 -20 8 -9 15 -25 15 -37 0 -18 -2 -19 -10
-7 -8 13 -10 13 -10 -2 0 -23 16 -32 24 -13 3 8 13 15 23 15 15 0 16 -2 3 -10
-12 -8 -12 -12 -2 -18 7 -5 12 -13 11 -18 -1 -5 -1 -18 0 -29 1 -15 6 -11 17
15 9 19 17 40 18 45 5 30 17 35 46 20 50 -26 56 -16 15 25 -38 37 -43 39 -102
40 -35 0 -63 -3 -63 -6z"/>
<path d="M2750 6395 c0 -2 33 -42 73 -89 39 -46 80 -98 90 -115 l18 -30 -38
-6 c-21 -4 -71 -15 -111 -25 -39 -10 -74 -14 -77 -10 -3 4 -18 10 -35 12 -29
4 -29 4 -12 -15 17 -19 16 -19 -23 -16 -34 3 -40 1 -37 -13 2 -11 -3 -18 -14
-18 -10 0 -14 5 -11 15 4 8 1 17 -4 21 -7 4 -9 -4 -7 -22 2 -24 -1 -30 -19
-32 -17 -3 -23 -10 -23 -28 l0 -25 28 19 c15 11 38 22 52 26 14 4 34 11 45 16
34 15 147 48 205 60 30 6 72 16 93 21 l37 10 -58 69 c-32 38 -65 82 -73 97
-21 42 -62 83 -81 83 -10 0 -18 -2 -18 -5z"/>
<path d="M1460 6280 c0 -22 5 -40 10 -40 6 0 10 18 10 40 0 22 -4 40 -10 40
-5 0 -10 -18 -10 -40z"/>
<path d="M6150 6160 c-54 -12 -206 -50 -290 -72 -76 -20 -326 -127 -524 -224
-111 -55 -145 -62 -91 -18 43 35 17 30 -90 -15 -28 -13 -73 -27 -125 -41 -25
-6 -60 -16 -78 -22 -57 -17 -95 -12 -147 21 -27 17 -55 31 -62 31 -15 0 50
-61 84 -79 25 -13 89 -15 97 -2 3 4 27 11 53 14 26 3 73 17 103 30 30 13 71
28 90 32 31 7 33 6 21 -8 -11 -14 -8 -15 26 -10 21 3 54 14 74 24 20 10 76 34
125 54 129 53 169 72 258 117 100 50 189 84 246 93 88 14 250 61 266 78 4 4 5
6 3 6 -2 -1 -20 -5 -39 -9z"/>
<path d="M2595 6141 c-6 -11 9 -23 19 -14 9 9 7 23 -3 23 -6 0 -12 -4 -16 -9z"/>
<path d="M4475 5890 c3 -5 8 -10 11 -10 2 0 4 5 4 10 0 6 -5 10 -11 10 -5 0
-7 -4 -4 -10z"/>
<path d="M2426 5855 c-64 -32 -79 -46 -67 -58 11 -11 71 9 71 24 0 5 7 9 15 9
8 0 15 7 15 15 0 8 7 15 15 15 8 0 15 5 15 10 0 15 -10 12 -64 -15z"/>
<path d="M2342 5764 c-7 -8 -8 -14 -3 -14 10 0 25 19 20 25 -2 1 -10 -3 -17
-11z"/>
<path d="M1283 5600 c0 -47 2 -66 4 -42 2 23 2 61 0 85 -2 23 -4 4 -4 -43z"/>
<path d="M2451 5652 c-15 -22 -17 -32 -9 -40 9 -9 19 -5 40 15 15 15 28 33 28
40 0 24 -38 14 -59 -15z"/>
<path d="M2806 5639 c-14 -11 -24 -25 -20 -30 6 -11 61 19 68 38 8 20 -18 16
-48 -8z"/>
<path d="M3282 5638 c3 -7 13 -15 22 -16 12 -3 17 1 14 10 -3 7 -13 15 -22 16
-12 3 -17 -1 -14 -10z"/>
<path d="M3387 5623 c-25 -6 -46 -29 -93 -97 -70 -103 -115 -177 -159 -265
-60 -119 -68 -167 -10 -56 114 215 238 395 273 395 4 0 17 7 28 15 19 14 19
14 -1 14 -11 -1 -28 -3 -38 -6z"/>
<path d="M3633 5615 c-17 -7 -34 -23 -38 -35 -4 -13 -31 -48 -61 -78 -30 -31
-54 -61 -54 -67 0 -7 -9 -20 -19 -29 -15 -14 -20 -14 -25 -4 -3 7 -4 1 -1 -13
3 -17 -1 -31 -12 -40 -24 -20 -58 -103 -78 -189 -9 -41 -21 -88 -26 -105 -4
-16 -10 -52 -12 -80 -3 -27 -3 -42 0 -32 6 25 23 21 23 -5 0 -13 7 -32 15 -42
14 -19 15 -19 15 6 0 15 7 29 16 32 13 5 14 9 4 21 -7 8 -9 16 -4 16 5 1 16 2
24 3 8 0 16 13 18 29 2 15 8 27 13 27 5 0 9 7 9 15 0 23 70 225 87 251 8 13
12 31 9 40 -6 15 -8 15 -31 0 l-24 -16 14 39 c27 77 105 201 126 201 16 0 89
50 89 60 0 14 -39 12 -77 -5z"/>
<path d="M2738 5603 c7 -3 16 -2 19 1 4 3 -2 6 -13 5 -11 0 -14 -3 -6 -6z"/>
<path d="M3208 5603 c7 -3 16 -2 19 1 4 3 -2 6 -13 5 -11 0 -14 -3 -6 -6z"/>
<path d="M2631 5512 c-43 -42 -91 -97 -106 -122 -15 -25 -31 -47 -34 -50 -21
-17 -92 -127 -127 -197 -22 -46 -44 -80 -49 -75 -4 4 -5 -3 -2 -15 3 -13 1
-26 -4 -29 -5 -3 -9 -15 -9 -27 0 -12 -11 -53 -25 -90 -29 -85 -25 -106 15
-74 16 12 29 29 30 37 1 11 3 10 9 -3 10 -26 21 -10 61 93 18 47 40 101 49
120 41 90 166 287 238 376 24 30 41 54 38 54 -4 0 3 13 14 29 26 36 26 37 0
44 -15 4 -38 -13 -98 -71z m71 26 c-7 -7 -12 -8 -12 -2 0 14 12 26 19 19 2 -3
-1 -11 -7 -17z"/>
<path d="M2490 5545 c-19 -19 -30 -35 -24 -35 9 0 17 8 53 53 23 29 7 19 -29
-18z"/>
<path d="M2158 5552 c-38 -25 -158 -135 -158 -144 0 -22 33 0 115 77 86 81
102 106 43 67z"/>
<path d="M3734 5555 c-18 -14 -18 -14 4 -8 12 3 22 9 22 14 0 12 -3 11 -26 -6z"/>
<path d="M4055 5518 c28 -29 57 -58 67 -65 30 -24 151 -241 182 -328 8 -22 15
-32 15 -22 2 37 20 13 45 -60 15 -43 34 -93 42 -111 15 -31 14 -34 -10 -63
-32 -38 -32 -45 -1 -103 14 -26 25 -54 25 -61 0 -19 38 -14 51 6 6 10 9 10 9
2 0 -16 32 -17 48 -1 7 7 12 28 12 48 0 24 6 39 20 48 11 7 20 19 20 26 0 8
13 17 30 21 16 4 32 15 35 26 8 23 18 24 49 3 20 -12 26 -13 32 -2 4 7 4 10
-1 6 -5 -5 -13 2 -19 15 -9 18 -24 23 -76 30 -36 4 -83 8 -105 9 -39 0 -41 2
-66 57 -69 148 -79 171 -79 185 0 9 -5 16 -10 16 -6 0 -19 19 -30 43 -10 23
-30 56 -45 72 -23 26 -25 27 -20 8 4 -15 2 -23 -6 -23 -7 0 -9 10 -5 30 3 17
1 30 -4 30 -6 0 -10 -5 -10 -10 0 -15 -29 15 -82 85 -46 60 -71 85 -118 118
-46 32 -44 17 5 -35z"/>
<path d="M5127 5543 c-47 -7 -43 -29 19 -111 32 -42 61 -79 65 -82 3 -3 20
-32 39 -65 19 -33 37 -62 41 -65 8 -6 69 -187 69 -206 0 -6 9 -19 20 -29 14
-13 17 -21 9 -26 -8 -5 -8 -12 0 -25 6 -11 11 -13 11 -6 0 6 5 12 10 12 7 0 8
-13 5 -34 -6 -27 -3 -36 12 -44 15 -9 16 -14 6 -31 -7 -12 -13 -52 -13 -91 0
-67 1 -70 24 -70 20 0 23 -4 18 -27 -3 -16 -7 -22 -9 -15 -3 6 -9 12 -15 12
-7 0 -9 -27 -5 -80 3 -45 1 -80 -4 -80 -5 0 -9 -10 -9 -22 1 -21 2 -21 17 6
11 21 14 45 10 85 -5 49 -4 52 5 21 9 -33 8 -63 -7 -121 -5 -17 -2 -31 9 -41
8 -9 12 -18 9 -22 -3 -3 -11 2 -18 10 -9 13 -12 14 -14 3 -3 -20 -3 -171 0
-256 2 -47 -1 -77 -9 -85 -15 -15 -16 -63 -1 -91 l12 -21 8 23 c10 27 33 18
24 -10 -9 -29 12 -23 29 9 13 23 15 24 16 7 0 -11 5 -27 11 -35 8 -12 9 -10 4
9 -5 17 -4 21 5 16 7 -4 10 -19 7 -34 -3 -14 1 -53 8 -86 l14 -60 -4 70 c-2
39 -7 106 -10 150 -5 55 -3 76 4 65 9 -13 55 -149 100 -300 l20 -65 -2 65 c-1
36 -7 76 -14 90 -7 14 -13 30 -13 36 0 6 -13 37 -29 70 -61 128 -62 144 -14
272 14 39 33 56 33 32 0 -13 72 -171 76 -167 4 4 -44 147 -54 161 -13 15 -42
106 -42 128 0 25 13 23 51 -9 31 -26 32 -18 3 17 -6 8 -19 39 -28 68 -17 59
-16 54 -16 85 0 12 -3 17 -8 11 -4 -6 -15 -11 -25 -11 -15 0 -17 5 -11 26 8
29 8 38 -3 126 -7 53 -3 162 8 205 3 10 -3 15 -16 15 -15 0 -19 7 -18 23 3 27
-17 29 -24 2 -3 -11 -9 -20 -14 -20 -11 0 -9 -7 -15 70 -6 66 4 144 30 237 10
36 12 60 5 80 l-9 28 4 -30 c6 -38 -8 -67 -17 -36 -6 24 -39 28 -56 8 -12 -15
-71 -11 -71 5 0 6 -10 18 -23 28 -13 10 -32 45 -42 79 -13 40 -27 64 -42 72
-26 14 -33 55 -7 45 11 -4 14 -1 12 12 -2 10 -11 16 -23 14 -34 -5 -39 -5 -70
0 -16 3 -43 3 -58 1z m333 -774 c0 -5 -4 -9 -10 -9 -5 0 -10 7 -10 16 0 8 5
12 10 9 6 -3 10 -10 10 -16z m10 -44 c0 -8 -7 -15 -15 -15 -9 0 -12 6 -9 15 4
8 10 15 15 15 5 0 9 -7 9 -15z m34 -51 c21 -8 22 -80 1 -88 -10 -4 -15 -20
-15 -53 -1 -26 -7 -61 -16 -78 l-14 -30 6 30 c5 24 19 125 25 180 1 6 -2 18
-6 28 -8 18 -5 20 19 11z m39 -156 c6 -20 -8 -116 -18 -126 -3 -3 -5 29 -5 71
0 74 11 101 23 55z m-73 -184 c0 -8 -4 -14 -10 -14 -5 0 -10 9 -10 21 0 11 5
17 10 14 6 -3 10 -13 10 -21z"/>
<path d="M5830 5524 c-6 -16 -27 -60 -46 -98 -20 -39 -29 -64 -20 -57 32 27
96 164 82 178 -3 3 -10 -7 -16 -23z"/>
<path d="M2875 5507 c-5 -7 -18 -23 -29 -35 -10 -11 -16 -28 -13 -36 5 -13 13
-13 57 3 28 10 51 21 51 25 -1 3 -1 17 -1 31 0 21 -5 25 -27 25 -16 -1 -32 -6
-38 -13z"/>
<path d="M3205 5510 c-3 -5 -13 -10 -22 -10 -21 0 -65 -48 -57 -62 5 -7 2 -8
-5 -3 -16 9 -67 -39 -75 -71 -4 -13 -11 -24 -16 -24 -6 0 -10 -9 -10 -19 0
-10 -6 -21 -14 -24 -9 -4 -12 -14 -9 -28 4 -14 0 -25 -11 -31 -14 -8 -23 -38
-11 -38 13 0 44 42 56 76 8 22 20 43 26 47 7 4 13 15 13 22 0 8 7 15 15 15 8
0 15 4 15 9 0 6 24 34 53 63 30 29 57 61 60 71 7 18 2 23 -8 7z"/>
<path d="M2440 5493 c0 -5 -22 -31 -49 -59 -98 -103 -273 -396 -366 -614 -84
-196 -155 -453 -200 -720 -14 -85 -30 -164 -35 -175 -5 -11 -21 -78 -36 -149
-14 -72 -30 -139 -35 -150 -4 -12 -15 -55 -24 -96 -17 -79 -78 -284 -100 -335
-7 -16 -23 -56 -35 -87 -12 -32 -26 -58 -30 -58 -4 0 -10 -12 -13 -27 -3 -16
-17 -73 -32 -128 -14 -55 -32 -161 -40 -235 -8 -74 -20 -160 -27 -190 -7 -30
-12 -126 -12 -215 0 -149 2 -166 28 -240 15 -44 45 -111 68 -150 34 -60 36
-66 14 -46 -42 40 -32 3 20 -70 61 -85 114 -177 114 -195 0 -8 -11 -19 -25
-26 -28 -13 -24 -28 9 -28 31 0 46 18 46 57 l0 34 23 -22 c19 -18 47 -37 143
-96 10 -7 51 -31 89 -54 39 -23 95 -61 125 -83 30 -22 86 -61 125 -86 110 -74
182 -145 183 -182 1 -45 23 -93 34 -76 6 8 7 -2 3 -27 -8 -57 42 -200 70 -200
16 0 21 -10 28 -53 11 -71 24 -76 174 -76 157 1 158 1 150 109 -6 78 -39 213
-54 224 -15 11 -55 153 -46 160 23 16 115 196 153 299 13 35 29 66 37 69 8 3
13 22 13 51 0 32 9 61 30 99 17 30 35 80 39 111 5 31 9 47 10 35 1 -27 20 -31
22 -5 1 9 1 21 0 25 -1 5 3 6 8 3 5 -3 7 -16 5 -29 -2 -12 -2 -16 2 -9 3 6 10
12 16 12 11 0 70 -44 112 -82 51 -49 121 -36 323 59 l53 25 30 -26 c17 -14 57
-33 88 -42 66 -19 142 -54 142 -66 0 -4 9 -8 19 -8 27 0 65 -61 47 -75 -16
-13 -9 -36 9 -29 16 7 37 -23 64 -92 l20 -52 -56 -88 c-31 -48 -70 -108 -88
-133 -18 -25 -42 -66 -54 -91 -34 -73 -311 -335 -419 -396 -75 -43 -88 -50
-116 -69 -16 -11 -66 -38 -110 -60 l-81 -40 -3 -71 -3 -71 -82 -45 c-74 -41
-154 -75 -118 -50 9 7 10 12 2 16 -6 4 -11 4 -11 -1 0 -4 -4 -3 -8 3 -4 5 -31
25 -61 43 -38 23 -52 28 -47 16 3 -9 6 -20 6 -25 0 -5 10 -11 23 -13 18 -4 17
-4 -6 -6 -16 0 -25 -5 -22 -11 4 -6 -1 -7 -11 -3 -13 5 -15 3 -9 -8 5 -8 4
-11 0 -6 -5 4 -11 20 -13 35 -3 26 -3 26 12 7 15 -20 15 -20 16 2 0 12 -4 23
-10 25 -5 2 -12 18 -16 36 -5 25 -3 32 10 32 9 0 16 5 16 10 0 6 -6 10 -14 10
-7 0 -25 9 -39 20 -14 11 -39 20 -56 20 -17 0 -53 9 -81 20 -58 23 -60 23 -60
11 0 -5 9 -13 20 -16 25 -8 26 -35 2 -66 -10 -13 -53 -89 -95 -169 -41 -80
-89 -170 -106 -200 -17 -30 -31 -58 -31 -62 0 -5 37 -8 83 -8 l82 0 32 70 c19
43 37 70 47 70 10 0 13 -6 9 -17 -4 -11 -3 -14 5 -9 7 4 31 -8 56 -26 36 -28
42 -37 32 -49 -17 -24 -37 -12 -31 19 3 15 3 22 -1 15 -4 -8 -10 -7 -24 4 -21
18 -58 24 -66 11 -3 -4 0 -8 5 -8 6 0 11 -4 11 -10 0 -5 -6 -7 -13 -4 -11 4
-22 -11 -44 -58 -2 -4 96 -7 217 -7 187 -1 224 1 245 15 23 15 25 15 25 0 0
-14 19 -16 150 -16 136 0 150 2 150 18 0 9 -9 80 -20 157 -11 77 -25 181 -31
230 -6 50 -15 98 -20 107 -10 19 19 53 55 64 32 10 162 91 243 151 87 64 345
315 408 398 26 33 63 94 83 135 54 112 52 59 -2 -60 -50 -108 -94 -220 -103
-260 -3 -14 -53 -95 -109 -181 -57 -86 -104 -164 -104 -173 0 -31 -30 -84 -51
-89 -10 -3 -19 -12 -19 -21 0 -20 26 -21 33 -2 4 9 14 12 26 9 24 -6 28 -23 6
-23 -8 0 -20 -9 -27 -21 -7 -11 -28 -27 -47 -35 -42 -18 -46 -18 -27 2 16 15
21 34 11 34 -3 0 -21 -15 -39 -32 -18 -18 -42 -38 -52 -44 -17 -10 -17 -14 12
-72 23 -45 34 -58 43 -49 8 8 11 3 11 -19 0 -16 -4 -34 -9 -39 -5 -6 -12 -26
-16 -45 -5 -30 -3 -36 16 -45 30 -13 35 -31 9 -38 -25 -6 -26 -26 -2 -33 9 -3
27 -11 40 -17 31 -15 42 3 42 66 0 44 -11 60 -25 37 -8 -13 -45 -13 -45 -1 0
5 10 13 23 16 40 13 66 55 67 110 0 48 2 51 38 70 20 11 43 26 50 32 7 7 17
13 20 13 4 0 20 11 35 25 16 15 27 20 27 13 0 -9 3 -9 10 2 5 8 11 12 14 9 8
-7 -11 -81 -23 -88 -6 -4 -15 -30 -21 -59 -5 -28 -19 -71 -30 -94 -11 -23 -20
-49 -20 -58 0 -10 -11 -34 -25 -54 -14 -20 -25 -39 -25 -41 0 -3 76 -5 169 -5
153 0 170 2 174 18 4 16 5 16 6 0 1 -15 11 -18 71 -18 39 0 70 2 70 5 0 2 -5
17 -11 32 -6 15 -16 39 -21 53 -6 14 -14 33 -19 42 -5 10 -9 25 -9 33 0 8 -4
15 -8 15 -4 0 -16 14 -25 30 -22 37 -35 38 -43 3 -4 -15 -17 -35 -28 -44 -21
-17 -21 -16 -33 34 -11 49 -17 306 -6 280 5 -14 24 -18 22 -5 -3 19 2 25 11
12 7 -12 10 -8 10 15 0 30 1 30 19 -10 10 -22 36 -58 58 -80 22 -22 47 -51 56
-65 20 -31 72 -182 81 -233 4 -21 11 -35 15 -33 15 10 8 -29 -11 -56 l-18 -27
290 -1 c159 0 290 3 291 7 0 4 2 31 2 58 2 30 11 66 25 90 24 44 110 218 123
250 5 11 22 56 38 100 26 71 97 241 167 405 13 30 24 61 24 68 0 6 5 12 10 12
13 0 7 -92 -21 -305 -28 -219 -76 -396 -170 -618 -15 -37 -25 -67 -21 -67 11
1 77 161 115 280 50 155 59 191 78 300 5 30 17 96 26 145 12 68 17 166 18 400
l3 310 32 105 c18 58 36 109 40 113 4 5 10 -47 13 -115 3 -68 10 -145 16 -173
6 -27 40 -192 75 -365 56 -274 71 -370 90 -565 2 -22 3 23 1 100 -4 146 -19
239 -91 554 -72 318 -73 320 -73 488 0 87 1 183 2 214 2 49 -1 58 -25 81 -16
14 -28 31 -28 37 0 7 -4 10 -9 7 -5 -4 -7 2 -4 13 3 10 0 22 -6 25 -7 5 -11
-4 -11 -23 0 -44 -17 -38 -22 7 -13 107 16 682 52 1012 5 47 16 197 25 333 17
278 34 355 35 162 1 -66 5 -192 9 -280 5 -88 5 -164 1 -170 -4 -5 -8 -32 -8
-60 0 -27 1 -45 3 -40 4 15 26 118 29 137 1 10 5 21 9 24 4 4 7 21 7 38 1 28
29 84 31 60 0 -5 4 0 9 11 11 25 11 226 1 325 -5 41 -5 81 -1 89 11 21 19 1
35 -81 32 -175 38 -198 45 -198 10 0 18 69 8 72 -12 5 -37 112 -32 139 4 21 3
21 -4 4 -7 -15 -11 -8 -17 35 -5 30 -8 73 -7 95 1 36 0 37 -6 10 -5 -20 -10
-26 -15 -17 -5 7 -5 26 -2 43 5 21 4 29 -3 25 -17 -10 -42 53 -42 106 0 26 4
48 9 48 5 0 12 10 14 23 3 16 5 13 6 -10 0 -18 6 -33 12 -33 7 0 8 49 5 153
-6 179 -13 236 -32 255 -8 7 -14 22 -14 32 0 10 -4 22 -10 25 -5 3 -10 19 -10
34 0 49 -29 118 -53 126 -12 4 -26 6 -32 5 -5 -1 -7 1 -3 5 4 4 1 14 -7 22 -8
8 -15 23 -15 34 0 11 -4 27 -9 37 -13 26 -34 94 -37 120 -1 13 -10 35 -20 50
-10 15 -30 52 -45 82 -14 30 -38 69 -52 86 -16 19 -27 44 -27 61 0 33 -139
275 -153 266 -5 -3 -11 4 -14 15 -3 12 -11 18 -18 16 -7 -3 -16 -1 -19 4 -3 6
-14 8 -25 5 -10 -2 -25 3 -35 12 -25 25 -19 3 10 -41 15 -21 34 -61 44 -89 10
-27 27 -76 39 -107 11 -32 21 -65 21 -75 0 -15 -2 -15 -15 3 -9 12 -14 14 -15
6 0 -7 -4 -10 -10 -7 -13 8 -13 6 10 -175 24 -187 22 -440 -4 -502 -9 -21 -16
-60 -16 -88 0 -43 -3 -50 -19 -50 -16 0 -21 9 -24 43 -2 23 -3 11 -1 -26 3
-45 1 -66 -6 -62 -5 3 -10 15 -10 26 0 10 -4 19 -10 19 -6 0 -11 -42 -11 -102
-3 -192 -4 -206 -12 -214 -4 -5 -5 11 -1 34 5 29 3 42 -5 42 -7 0 -9 -4 -6
-10 3 -5 -1 -10 -9 -10 -13 0 -16 12 -16 59 0 32 -3 73 -6 91 -12 58 -24 10
-25 -100 0 -58 -4 -114 -9 -125 -7 -17 -9 -14 -10 15 -1 19 -1 58 -1 85 1 28
-3 57 -9 65 -8 13 -10 12 -10 -5 0 -11 -16 -83 -36 -160 -19 -77 -42 -171 -51
-210 -8 -38 -19 -73 -24 -76 -6 -3 -9 -10 -8 -15 4 -21 -2 -35 -12 -28 -15 9
-59 -16 -59 -34 0 -10 8 -13 30 -10 17 3 30 3 30 2 0 -2 -9 -26 -20 -53 -11
-28 -17 -57 -14 -66 4 -9 1 -15 -8 -15 -12 0 -28 -24 -56 -82 -2 -5 1 -8 7 -8
6 0 11 7 11 16 0 8 5 12 10 9 9 -6 -3 -42 -19 -55 -3 -3 -17 -26 -30 -52 -26
-53 -44 -63 -36 -20 3 15 2 20 -1 12 -4 -8 -12 -18 -17 -22 -7 -4 -6 -12 2
-22 19 -23 6 -46 -27 -46 -29 0 -56 -24 -80 -70 -20 -41 -61 -92 -85 -109 -12
-8 -29 -22 -37 -31 -8 -9 -21 -15 -27 -13 -7 3 -16 -3 -19 -11 -5 -14 -9 -13
-26 6 -11 13 -26 31 -33 42 -7 10 -19 16 -26 14 -8 -3 -3 -14 14 -32 32 -34
43 -64 28 -79 -16 -16 -14 -30 3 -24 8 3 29 -1 47 -10 l31 -15 -7 -63 c-4 -41
-3 -65 4 -70 6 -3 12 -1 12 4 1 6 3 23 4 39 2 15 6 36 10 48 4 13 1 26 -7 35
-8 8 -22 26 -32 42 -18 27 -18 28 7 53 33 32 51 23 44 -22 -5 -32 5 -46 18
-24 13 21 24 8 30 -35 10 -64 27 -74 65 -37 16 17 30 38 30 46 0 19 13 20 41
5 13 -7 18 -16 14 -28 -4 -12 0 -21 12 -25 14 -6 11 -11 -19 -36 -34 -28 -63
-82 -51 -94 8 -8 47 -8 67 0 21 8 21 24 0 24 -12 0 -9 9 13 38 16 20 37 54 47
75 20 43 36 43 94 0 38 -29 50 -52 33 -63 -7 -4 -12 -16 -10 -26 3 -28 -36
-106 -73 -146 -61 -65 -99 -113 -155 -198 -117 -175 -144 -194 -513 -352 -52
-22 -99 -44 -105 -48 -30 -22 -199 -80 -303 -105 -68 -16 -75 -16 -124 0 -29
9 -60 22 -69 29 -18 12 -121 101 -204 176 -27 25 -55 50 -61 55 -60 52 -164
160 -194 200 -21 28 -42 70 -49 95 -39 153 -49 203 -54 270 -5 71 -1 69 17 -7
5 -19 15 -33 23 -33 10 0 14 -7 10 -20 -3 -13 -1 -18 6 -13 6 4 8 0 4 -9 -3
-10 4 -25 19 -39 23 -22 30 -17 18 15 -3 9 -11 13 -17 9 -6 -3 -7 -1 -3 5 4 6
0 24 -8 40 -32 61 -88 251 -102 347 -23 154 -9 968 17 1010 7 10 26 101 32
147 3 29 50 73 67 63 5 -3 10 0 10 8 0 8 13 20 30 27 16 7 39 21 51 31 28 24
52 25 45 2 -3 -10 -8 -61 -11 -113 -4 -52 -13 -117 -20 -145 -12 -44 -75 -338
-75 -350 0 -3 -16 -5 -36 -5 -31 0 -34 -2 -21 -15 18 -18 32 -157 23 -236 -18
-177 -18 -534 1 -515 3 3 5 51 4 108 -2 95 12 260 25 315 5 18 11 22 25 18 11
-4 19 -2 19 4 0 6 10 15 21 22 28 14 39 -1 39 -57 0 -22 6 -61 13 -85 10 -32
11 -49 3 -62 -13 -20 5 -43 27 -34 13 5 13 12 0 57 -11 37 -12 55 -4 63 6 6 8
28 4 55 -6 42 -5 45 13 38 10 -5 31 -13 47 -18 21 -8 30 -20 38 -54 11 -43 22
-54 34 -34 3 6 1 10 -4 10 -6 0 -11 14 -11 30 0 28 2 30 20 20 11 -6 18 -16
14 -22 -5 -7 -1 -8 11 0 12 6 30 6 52 0 19 -5 37 -7 40 -4 3 3 -5 23 -19 43
-34 52 -100 204 -92 212 4 3 9 0 11 -7 3 -6 8 -10 12 -7 5 2 22 0 40 -5 65
-18 23 14 -62 49 -17 7 -25 16 -21 23 5 8 2 9 -10 5 -12 -5 -16 -2 -14 11 2 9
-3 16 -9 14 -7 -1 -13 4 -13 12 0 7 -15 17 -32 22 -32 9 -33 12 -50 99 -19 97
-22 308 -7 445 5 41 9 85 9 97 0 25 35 50 45 33 8 -13 25 -13 25 0 0 6 -7 10
-15 10 -21 0 -19 9 6 31 12 10 31 17 43 15 11 -2 15 -1 8 1 -19 7 -3 23 23 23
35 0 48 32 40 96 -5 45 -17 67 -83 157 -43 57 -120 167 -172 245 -102 154
-107 158 -166 121 -31 -19 -33 -24 -32 -66 2 -34 9 -53 29 -74 15 -16 57 -73
94 -127 36 -53 84 -122 105 -152 21 -30 36 -58 32 -61 -4 -4 -36 -21 -72 -40
-69 -36 -207 -117 -299 -178 -31 -20 -65 -39 -76 -42 -18 -5 -20 -13 -17 -65
2 -46 7 -63 23 -76 12 -10 17 -18 13 -18 -5 0 -1 -5 9 -11 14 -8 22 -8 30 0
16 16 42 15 29 -2 -6 -7 -11 -31 -10 -53 0 -23 -5 -50 -11 -61 -15 -29 -34
-204 -29 -268 3 -30 11 -60 21 -69 20 -20 27 -20 27 1 0 31 11 6 14 -32 1 -21
-3 -54 -10 -74 -17 -48 -17 -71 0 -71 16 0 22 -40 31 -205 11 -204 35 -444 51
-502 8 -32 18 -87 23 -122 8 -63 8 -63 -11 -40 l-19 24 7 -25 c6 -25 47 -120
65 -153 6 -11 8 -21 6 -24 -3 -3 -11 6 -18 19 -7 12 -33 50 -59 83 -111 143
-204 302 -229 390 -40 138 -61 707 -34 923 7 64 16 137 18 162 2 25 7 68 10
95 3 28 8 79 10 115 7 86 29 212 50 280 9 30 19 71 22 90 l4 35 -20 -22 c-10
-13 -23 -23 -29 -23 -11 0 -22 -53 -63 -294 -29 -179 -46 -251 -49 -216 -3 29
-19 -24 -19 -65 -1 -31 -9 -50 -39 -84 -34 -40 -43 -45 -78 -44 -21 1 -53 4
-69 8 -23 5 -35 2 -48 -13 -21 -23 -5 -41 18 -22 11 9 21 9 45 -1 16 -8 30
-18 30 -22 0 -5 5 -5 12 -1 8 5 9 2 4 -12 -4 -10 -4 -15 0 -11 4 4 15 0 24 -8
10 -9 21 -15 26 -14 5 1 20 1 33 0 20 -1 22 -5 17 -26 -3 -13 -9 -111 -12
-217 -3 -106 -8 -197 -11 -201 -3 -5 -11 0 -18 10 -23 32 -30 4 -10 -45 10
-26 20 -73 23 -105 3 -50 2 -56 -13 -51 -9 4 -25 24 -35 44 -11 21 -33 53 -50
72 l-31 33 17 -40 c29 -70 53 -113 83 -147 27 -32 29 -37 29 -133 0 -175 -52
-329 -161 -475 -23 -30 -47 -61 -54 -68 -15 -16 -17 -52 -3 -52 6 0 13 7 16
15 3 8 33 37 67 64 60 49 62 50 70 28 5 -12 11 -74 13 -137 2 -63 9 -149 14
-190 5 -41 12 -100 15 -130 4 -30 8 -57 11 -62 3 -4 9 -69 14 -145 6 -75 15
-140 20 -143 6 -4 9 -15 8 -26 -3 -21 20 -180 29 -204 4 -8 5 -21 4 -27 -1 -7
3 -13 9 -13 6 0 8 -5 4 -12 -5 -7 -2 -9 9 -5 11 4 14 2 10 -9 -3 -7 0 -14 6
-14 6 0 11 -5 11 -10 0 -6 -14 -3 -32 6 -30 15 -167 111 -178 124 -3 4 -25 20
-50 38 -25 17 -61 44 -80 61 -19 17 -39 31 -43 31 -5 0 -5 5 -2 10 3 6 14 10
23 10 13 0 14 -2 3 -9 -9 -6 -10 -11 -2 -15 6 -4 18 -1 25 7 13 12 12 16 -8
25 -12 5 -29 6 -37 2 -8 -4 -25 -2 -39 4 -30 13 -37 46 -9 39 11 -3 19 -1 19
5 0 15 -42 23 -57 10 -7 -5 -10 -14 -7 -19 6 -11 -20 -12 -30 -2 -4 4 -13 8
-19 8 -40 2 -97 47 -122 95 -7 14 -29 43 -49 65 -20 21 -36 43 -36 48 0 5 13
-6 30 -24 43 -49 37 -21 -15 64 -52 85 -90 168 -100 213 -7 34 -7 34 124 90
88 37 165 79 169 91 2 7 -4 9 -17 6 -19 -5 -19 -3 3 69 13 40 33 93 44 118 51
110 60 140 88 295 21 116 44 373 44 493 0 56 4 102 8 102 5 0 31 -28 57 -62
59 -76 71 -62 19 22 -21 34 -49 84 -63 112 -14 28 -30 51 -36 50 -5 -1 -11
-28 -12 -59 -22 -615 -37 -778 -84 -862 l-20 -36 5 40 c24 187 29 324 30 855
2 559 3 591 25 725 37 229 89 418 176 640 9 22 18 48 21 57 4 10 10 16 14 13
5 -3 6 3 4 12 -11 43 237 482 377 666 11 15 16 27 10 27 -6 0 -11 -3 -11 -7z
m2429 -388 c0 -5 -4 -3 -9 5 -5 8 -9 22 -9 30 0 16 17 -16 18 -35z m28 -197
c-3 -8 -6 -5 -6 6 -1 11 2 17 5 13 3 -3 4 -12 1 -19z m10 -40 c-3 -8 -6 -5 -6
6 -1 11 2 17 5 13 3 -3 4 -12 1 -19z m-2359 -845 c-13 -3 -15 -9 -9 -27 15
-38 2 -76 -25 -76 -13 0 -24 5 -24 10 0 6 8 10 18 8 14 -2 17 5 18 37 2 55 2
55 22 54 16 -1 16 -2 0 -6z m2256 -469 c7 -181 12 -362 10 -402 -3 -64 -1 -72
14 -70 13 2 17 -5 19 -34 0 -21 -2 -36 -5 -34 -4 2 -7 -12 -8 -32 0 -21 -6
-89 -12 -152 -14 -132 -20 -614 -9 -646 5 -14 3 -27 -6 -35 -11 -12 -39 -115
-54 -201 -6 -33 9 -36 39 -8 12 11 25 17 29 13 12 -13 16 -137 5 -155 -9 -15
-11 -15 -21 -1 -11 15 -12 9 -4 -57 1 -8 1 -57 1 -107 -2 -92 -2 -93 -27 -93
-14 0 -25 5 -25 10 0 19 -19 10 -26 -12 -10 -34 -33 -53 -47 -39 -13 13 -47
15 -47 3 0 -4 5 -13 10 -18 7 -7 3 -15 -14 -23 -13 -8 -27 -22 -29 -32 -6 -24
-24 -25 -30 -1 -3 10 -5 6 -6 -10 -1 -17 -7 -28 -15 -28 -20 0 -29 17 -21 38
13 29 11 62 -2 62 -23 0 -63 -103 -62 -156 2 -36 -6 -66 -28 -114 -55 -116
-71 -154 -82 -195 -19 -68 -12 -84 13 -32 28 57 42 74 26 32 -6 -17 -16 -52
-21 -80 -19 -95 -39 -210 -43 -253 -9 -85 -16 -102 -41 -102 -12 0 -28 -6 -34
-14 -18 -22 -21 -123 -5 -154 29 -56 7 -66 -76 -35 -66 24 -107 66 -113 117
-2 22 -12 60 -21 84 -14 37 -15 55 -5 133 6 49 15 89 19 89 5 0 6 9 3 20 -3
12 2 29 13 42 11 12 13 18 5 13 -10 -6 -12 -2 -7 16 4 13 11 40 16 59 30 112
62 217 70 232 6 10 10 27 10 37 0 11 5 23 10 26 6 3 10 14 10 24 0 26 23 65
39 69 10 2 12 -5 7 -28 -3 -19 -2 -29 4 -25 6 3 10 -1 10 -9 0 -8 -4 -18 -10
-21 -15 -9 -12 -65 3 -65 9 0 9 -2 1 -8 -7 -4 -17 -27 -24 -50 -6 -24 -16 -55
-23 -69 -10 -23 -12 -24 -24 -7 -11 16 -13 16 -13 2 0 -9 5 -20 10 -23 6 -3
10 -18 10 -33 0 -21 -2 -24 -10 -12 -8 12 -10 10 -10 -11 0 -14 -10 -35 -21
-48 -18 -19 -20 -27 -10 -47 6 -14 11 -39 11 -57 1 -27 2 -29 11 -14 6 10 9
28 8 40 -1 12 1 29 5 37 9 21 57 190 63 222 3 16 9 28 14 28 5 0 9 8 9 17 0
31 82 162 103 165 14 2 33 26 59 76 21 41 47 85 58 99 11 14 20 32 20 39 0 7
8 21 18 31 10 10 29 44 41 75 13 32 29 62 37 69 8 6 14 15 14 20 0 4 18 45 40
91 22 46 40 89 40 96 0 6 5 12 10 12 6 0 10 -9 10 -20 0 -11 5 -20 10 -20 6 0
10 25 8 63 -1 41 4 72 14 92 9 17 21 64 27 105 13 93 33 402 30 490 0 36 -1
77 -2 93 0 42 -12 32 -26 -22 -20 -79 -122 -219 -135 -187 -2 6 -5 -4 -5 -21
-1 -18 -5 -33 -11 -33 -5 0 -10 -9 -10 -19 0 -11 -7 -26 -15 -35 -8 -8 -15
-19 -15 -24 0 -16 -33 -77 -37 -67 -6 19 74 315 90 332 25 29 177 335 177 357
0 12 -7 29 -14 39 -13 17 -15 16 -24 -15 -6 -18 -16 -52 -22 -75 -12 -47 -29
-54 -59 -24 -10 10 -35 21 -55 25 -35 7 -36 8 -31 44 3 20 7 68 9 106 3 38 9
72 15 75 5 4 16 37 23 74 9 49 16 66 26 62 8 -3 20 -5 28 -5 9 0 12 -4 9 -10
-3 -5 2 -10 13 -10 11 0 28 -11 38 -25 21 -29 33 -17 29 29 -5 58 -18 451 -17
500 2 62 11 91 23 79 5 -5 16 -158 23 -339z m-93 185 l-10 -24 0 26 c-1 14 2
29 6 33 12 12 14 -9 4 -35z m-2508 -12 c-6 -40 -15 -44 -51 -23 l-24 13 30 12
c17 7 33 20 37 28 10 27 15 9 8 -30z m3114 -39 c-3 -7 -5 -2 -5 12 0 14 2 19
5 13 2 -7 2 -19 0 -25z m-686 -83 c-7 -39 -11 -76 -9 -81 2 -5 -1 -9 -7 -9
-12 0 -11 5 6 109 7 43 15 73 17 66 3 -7 -1 -45 -7 -85z m86 63 c-3 -7 -5 -2
-5 12 0 14 2 19 5 13 2 -7 2 -19 0 -25z m623 -112 c-7 -7 -10 11 -9 55 l1 64
9 -54 c6 -36 6 -58 -1 -65z m-2519 44 c10 -27 13 -50 8 -50 -5 0 -9 6 -9 13 0
9 -3 8 -9 -2 -12 -18 -17 -4 -20 54 -3 59 6 54 30 -15z m-324 -52 c-3 -7 -5
-2 -5 12 0 14 2 19 5 13 2 -7 2 -19 0 -25z m2868 -181 c5 4 3 0 -4 -10 -8 -9
-15 -16 -16 -15 -2 2 -5 44 -8 93 l-5 90 11 -83 c8 -52 16 -81 22 -75z m-8
101 c-3 -7 -5 -2 -5 12 0 14 2 19 5 13 2 -7 2 -19 0 -25z m-739 3 c3 -8 -1
-12 -9 -9 -7 2 -15 10 -17 17 -3 8 1 12 9 9 7 -2 15 -10 17 -17z m-25 -93 c-6
-7 -15 -26 -21 -43 -11 -29 -11 -28 -6 10 8 61 13 70 26 57 8 -8 8 -15 1 -24z
m-2376 -55 c-3 -10 -5 -4 -5 12 0 17 2 24 5 18 2 -7 2 -21 0 -30z m13 -318 c6
-132 13 -260 15 -285 15 -126 38 -265 59 -350 46 -185 108 -404 130 -464 44
-115 117 -252 161 -303 38 -43 42 -52 28 -58 -31 -11 6 -24 38 -13 38 13 36
27 -11 63 -21 17 -39 36 -40 43 0 6 -3 12 -7 12 -5 0 -16 15 -27 33 -23 40
-76 140 -76 144 0 2 44 -19 98 -46 134 -69 168 -81 218 -81 24 0 44 -2 44 -6
0 -3 -10 -23 -22 -44 -31 -54 -14 -63 27 -15 40 47 43 39 14 -41 -11 -32 -22
-63 -23 -69 -2 -5 -7 -19 -11 -30 -71 -177 -132 -304 -148 -311 -8 -3 -38 4
-68 15 -30 11 -65 21 -79 23 -18 2 -26 10 -28 28 -5 31 -20 50 -39 50 -10 0
-13 -6 -9 -16 11 -28 -22 4 -63 61 -104 143 -176 378 -216 705 -15 123 -18
199 -8 170 3 -8 16 -37 29 -65 12 -27 28 -70 34 -95 38 -153 120 -327 188
-399 29 -31 18 -1 -28 74 -106 170 -179 459 -211 830 -12 143 -5 708 9 730 9
13 9 3 22 -290z m3124 280 c3 -9 0 -15 -9 -15 -9 0 -12 6 -9 15 4 8 7 15 9 15
2 0 5 -7 9 -15z m5 -77 c0 -28 -2 -30 -9 -13 -12 28 -12 45 0 45 6 0 10 -15 9
-32z m-809 -24 c0 -3 -5 -14 -11 -25 -6 -11 -13 -48 -15 -82 -3 -34 -6 -63 -7
-64 -6 -5 -87 20 -87 28 0 5 -6 6 -13 3 -7 -2 -23 -1 -36 4 -21 8 -21 8 -4 29
15 16 27 20 61 17 40 -4 42 -2 57 33 9 20 20 42 26 50 12 13 29 18 29 7z m-90
-18 c0 -3 -4 -8 -10 -11 -5 -3 -10 -1 -10 4 0 6 5 11 10 11 6 0 10 -2 10 -4z
m-2677 -72 c1 -21 -2 -39 -8 -39 -5 0 -9 11 -7 25 2 19 0 22 -7 10 -17 -25
-24 -3 -10 29 17 37 29 27 32 -25z m2639 24 c-7 -7 -12 -8 -12 -2 0 6 3 14 7
17 3 4 9 5 12 2 2 -3 -1 -11 -7 -17z m709 15 c18 -228 12 -600 -10 -564 -4 6
-6 -10 -4 -36 4 -53 4 -54 -2 -103 -2 -19 -4 -41 -4 -48 -1 -7 -5 -10 -11 -7
-5 3 -10 1 -10 -4 0 -6 5 -11 10 -11 6 0 10 -10 11 -22 0 -22 1 -22 9 -3 5 11
9 14 9 7 1 -16 -28 -86 -33 -81 -2 2 -7 29 -11 59 -8 72 -23 128 -36 135 -5 4
-7 16 -3 27 4 14 2 18 -5 14 -16 -10 -14 7 4 30 17 22 20 150 5 204 -14 51
-16 179 -3 220 18 56 35 104 44 122 5 10 9 26 9 36 0 10 3 22 7 25 9 9 23 9
24 0z m-3448 -44 c7 -1 18 -1 25 0 15 2 15 2 1 -38 -6 -17 -17 -31 -25 -31
-27 0 -71 29 -77 49 -5 19 14 46 25 36 3 -3 11 2 19 11 13 16 14 16 17 -4 2
-12 9 -23 15 -23z m2687 -59 c0 -5 -5 -10 -11 -10 -5 0 -7 5 -4 10 3 6 8 10
11 10 2 0 4 -4 4 -10z m-201 -157 c-26 -33 -53 -45 -43 -19 3 7 15 18 27 24
30 15 31 14 16 -5z m445 -22 c3 -5 -1 -14 -9 -21 -8 -7 -15 -18 -15 -26 0 -7
-4 -15 -9 -19 -6 -3 -8 7 -7 22 2 16 4 34 5 41 1 14 27 16 35 3z m-160 -14
c17 -12 17 -14 -1 -34 -14 -17 -23 -19 -40 -13 -27 11 -30 35 -5 49 22 13 25
13 46 -2z m536 -49 l10 -33 -5 35 c-4 28 -3 32 6 17 6 -11 9 -31 6 -45 -3 -15
-1 -50 3 -79 10 -61 -3 -123 -27 -123 -12 0 -13 3 -4 13 6 8 14 38 17 66 5 49
4 52 -14 47 -15 -5 -21 -1 -24 19 -6 27 6 43 16 23 4 -7 4 11 2 40 -6 60 -1
66 14 20z m-383 -86 c-15 -15 -27 -21 -27 -13 0 14 42 52 49 45 3 -3 -7 -17
-22 -32z m-387 24 c0 -3 -4 -8 -10 -11 -5 -3 -10 -1 -10 4 0 6 5 11 10 11 6 0
10 -2 10 -4z m-1930 -30 c0 -14 5 -28 10 -31 6 -3 10 -17 10 -30 0 -13 5 -27
10 -30 6 -3 10 -13 10 -21 0 -12 -4 -11 -19 3 -19 19 -45 133 -29 133 4 0 8
-11 8 -24z m2710 -163 c0 -13 -2 -13 -17 -2 -15 13 -16 11 -11 -14 3 -15 1
-30 -3 -33 -5 -3 -9 8 -9 25 0 23 -4 29 -15 25 -8 -4 -15 -2 -15 4 0 14 19 19
47 14 13 -2 23 -11 23 -19z m-2545 -93 c3 -5 1 -10 -4 -10 -6 0 -11 5 -11 10
0 6 2 10 4 10 3 0 8 -4 11 -10z m52 -65 c8 -9 13 -18 11 -21 -3 -2 -13 5 -23
16 -21 23 -11 27 12 5z m2526 -13 c-9 -26 -35 -52 -44 -46 -5 3 -9 17 -9 32 0
24 1 25 13 7 9 -11 16 -14 21 -7 3 6 2 13 -4 17 -15 9 -2 25 15 19 8 -3 11
-13 8 -22z m-2483 -33 c0 -6 -4 -7 -10 -4 -5 3 -10 11 -10 16 0 6 5 7 10 4 6
-3 10 -11 10 -16z m2349 9 c-4 -30 3 -37 31 -36 20 1 30 6 31 17 0 14 1 14 6
1 3 -8 10 -18 15 -21 5 -3 -2 -19 -16 -34 -15 -16 -34 -53 -43 -84 -10 -32
-18 -48 -21 -38 -2 9 -8 14 -14 11 -6 -4 -8 -2 -4 4 3 6 2 13 -4 17 -5 3 -10
15 -10 26 0 13 -4 18 -12 13 -8 -5 -9 0 -4 17 4 13 9 40 12 59 3 28 2 31 -6
15 -9 -18 -9 -18 -7 5 1 14 8 24 15 23 6 -2 12 2 12 7 0 6 5 10 10 10 6 0 10
-6 9 -12z m121 -203 c0 -13 -4 -34 -9 -47 -5 -13 -20 -60 -32 -105 -18 -65
-25 -80 -35 -72 -14 12 -68 145 -79 194 -6 27 -3 25 25 -17 33 -49 50 -60 50
-33 0 8 5 14 12 13 7 -2 17 7 23 20 5 12 13 22 17 22 5 0 8 11 8 25 0 14 5 25
10 25 6 0 10 -11 10 -25z m50 -161 c0 -32 -4 -44 -12 -42 -19 7 -22 37 -7 64
7 13 14 24 16 24 2 0 3 -21 3 -46z m-20 -147 c0 -46 -53 -167 -95 -219 l-22
-26 -25 21 c-51 44 -72 121 -49 179 20 50 24 64 22 78 -1 11 2 10 10 -3 6 -10
9 -38 7 -62 -1 -24 1 -41 5 -38 5 3 5 -21 2 -52 -6 -46 -5 -57 6 -53 13 4 19
22 39 116 5 23 19 52 30 64 19 21 25 43 20 78 -1 8 10 0 24 -19 14 -19 26 -48
26 -64z m30 72 c0 -6 -4 -7 -10 -4 -5 3 -10 11 -10 16 0 6 5 7 10 4 6 -3 10
-11 10 -16z m-740 -33 c-4 -19 -5 -37 -2 -40 3 -4 1 -6 -5 -6 -6 0 -13 -9 -16
-20 -3 -11 -13 -23 -24 -27 -10 -3 -20 -9 -23 -13 -8 -10 -128 -90 -135 -90
-4 0 18 20 48 45 31 25 79 76 108 115 28 38 53 70 54 70 2 0 -1 -16 -5 -34z
m-2153 -218 c-3 -8 -6 -5 -6 6 -1 11 2 17 5 13 3 -3 4 -12 1 -19z m2793 -98
c0 -5 -4 -10 -10 -10 -5 0 -10 5 -10 10 0 6 5 10 10 10 6 0 10 -4 10 -10z
m116 -27 c-10 -10 -19 5 -10 18 6 11 8 11 12 0 2 -7 1 -15 -2 -18z m-71 -169
c12 -75 12 -102 2 -159 l-13 -68 -17 174 c-18 178 -21 207 -17 224 3 21 32
-84 45 -171z m75 131 c0 -14 -4 -25 -10 -25 -11 0 -14 33 -3 43 11 11 13 8 13
-18z m-812 -25 c-7 -11 -17 -20 -22 -20 -5 0 -1 9 9 20 10 11 20 20 22 20 2 0
-2 -9 -9 -20z m-1988 -75 c0 -5 -5 -3 -10 5 -5 8 -10 20 -10 25 0 6 5 3 10 -5
5 -8 10 -19 10 -25z m-30 10 c0 -8 -2 -15 -4 -15 -2 0 -6 7 -10 15 -3 8 -1 15
4 15 6 0 10 -7 10 -15z m2010 -79 c0 -3 -4 -8 -10 -11 -5 -3 -10 -1 -10 4 0 6
5 11 10 11 6 0 10 -2 10 -4z m-1900 -60 c6 -16 6 -27 -1 -31 -5 -4 -14 7 -20
24 -6 17 -15 31 -20 31 -4 0 -6 7 -3 15 5 12 8 12 20 0 8 -7 18 -25 24 -39z
m-65 -6 c3 -6 -1 -7 -9 -4 -18 7 -21 14 -7 14 6 0 13 -4 16 -10z m8 -33 c4 3
7 -1 7 -10 0 -22 -3 -21 -26 5 -12 14 -13 18 -3 10 9 -6 19 -9 22 -5z m1394
-773 c-3 -3 -12 -4 -19 -1 -8 3 -5 6 6 6 11 1 17 -2 13 -5z m-1050 -111 c-3
-10 -5 -4 -5 12 0 17 2 24 5 18 2 -7 2 -21 0 -30z m813 -24 c0 -14 -27 -10
-33 5 -4 10 0 12 14 9 10 -3 19 -9 19 -14z m-730 -13 c0 -3 -4 -8 -10 -11 -5
-3 -10 -1 -10 4 0 6 5 11 10 11 6 0 10 -2 10 -4z m55 -26 c-3 -5 -13 -10 -21
-10 -8 0 -14 5 -14 10 0 6 9 10 21 10 11 0 17 -4 14 -10z m-58 -6 c-3 -3 -12
-4 -19 -1 -8 3 -5 6 6 6 11 1 17 -2 13 -5z m1233 -155 c0 -5 -4 -9 -10 -9 -5
0 -10 7 -10 16 0 8 5 12 10 9 6 -3 10 -10 10 -16z m-3 -51 c-3 -8 -6 -5 -6 6
-1 11 2 17 5 13 3 -3 4 -12 1 -19z m-1497 -17 c0 -6 -4 -13 -10 -16 -5 -3 -10
1 -10 9 0 9 5 16 10 16 6 0 10 -4 10 -9z"/>
<path d="M4761 3234 c0 -11 3 -14 6 -6 3 7 2 16 -1 19 -3 4 -6 -2 -5 -13z"/>
<path d="M4760 1776 c0 -9 5 -16 10 -16 6 0 10 4 10 9 0 6 -4 13 -10 16 -5 3
-10 -1 -10 -9z"/>
<path d="M4775 1570 c-3 -5 -1 -10 4 -10 6 0 11 5 11 10 0 6 -2 10 -4 10 -3 0
-8 -4 -11 -10z"/>
<path d="M4700 1550 c-8 -5 -12 -12 -9 -15 4 -3 12 1 19 10 14 17 11 19 -10 5z"/>
<path d="M4643 1543 c-22 -8 -14 -18 14 -20 14 0 22 2 17 6 -5 3 -11 9 -14 12
-3 4 -11 4 -17 2z"/>
<path d="M4196 1275 c4 -15 1 -32 -6 -40 -7 -9 -10 -18 -7 -21 9 -10 37 54 31
70 -10 26 -25 18 -18 -9z"/>
<path d="M4181 1169 c-13 -39 -13 -39 -1 -39 6 0 10 8 10 17 0 9 7 25 17 35
14 16 14 18 1 18 -9 0 -21 -14 -27 -31z"/>
<path d="M4148 1150 c-3 -19 -9 -44 -13 -55 -3 -11 1 -7 10 8 9 15 15 40 13
55 -3 25 -4 24 -10 -8z"/>
<path d="M4132 985 c0 -16 2 -22 5 -12 2 9 2 23 0 30 -3 6 -5 -1 -5 -18z"/>
<path d="M4106 867 c-5 -10 -3 -36 5 -62 10 -35 15 -41 22 -29 6 10 5 19 -1
23 -6 3 -12 24 -14 46 -3 30 -6 36 -12 22z"/>
<path d="M4090 766 c0 -14 5 -28 10 -31 6 -3 10 5 10 19 0 14 -4 28 -10 31 -6
3 -10 -5 -10 -19z"/>
<path d="M2472 1628 c2 -6 19 -23 38 -37 35 -27 33 -14 -3 27 -22 24 -41 30
-35 10z"/>
<path d="M4895 2270 c-3 -5 -1 -10 4 -10 6 0 11 5 11 10 0 6 -2 10 -4 10 -3 0
-8 -4 -11 -10z"/>
<path d="M3709 5467 c-30 -38 -103 -189 -114 -235 -7 -33 -20 -42 -28 -19 -2
6 -8 8 -13 4 -5 -4 -2 -12 5 -16 11 -7 11 -19 0 -65 -7 -31 -16 -59 -21 -62
-4 -3 -8 -16 -8 -29 0 -13 -5 -27 -10 -30 -6 -4 -10 -21 -8 -38 1 -18 -3 -41
-10 -52 -17 -30 -14 0 23 195 9 45 -41 -61 -74 -158 -39 -117 -55 -190 -75
-367 -22 -180 -44 -329 -57 -380 -13 -48 -13 -45 -46 -225 -14 -80 -31 -149
-36 -155 -14 -15 1 121 18 163 17 39 19 52 7 52 -11 0 -41 -74 -54 -134 -6
-28 -18 -58 -25 -67 -8 -10 -11 -19 -6 -20 4 -2 6 -94 3 -204 -3 -110 -3 -204
0 -210 3 -5 6 -34 6 -63 1 -29 7 -65 12 -80 6 -15 13 -40 17 -56 l6 -29 25 24
26 24 19 -24 c10 -13 19 -27 19 -32 0 -16 -25 -20 -53 -10 -23 9 -27 8 -27 -8
0 -10 11 -40 25 -66 14 -26 24 -49 22 -51 -1 -2 -28 12 -59 30 -41 25 -59 31
-67 23 -15 -15 -14 -27 6 -49 16 -18 15 -20 -15 -48 -18 -17 -27 -25 -22 -18
21 25 9 26 -26 3 -46 -32 -110 -34 -147 -5 -41 33 -86 20 -51 -15 24 -24 153
-84 160 -74 3 5 0 9 -5 9 -26 0 -8 18 23 24 22 4 52 25 89 61 31 30 60 55 65
55 15 0 56 -52 71 -89 16 -36 34 -40 59 -9 52 66 86 95 105 90 16 -4 18 -1 13
17 -3 11 -9 31 -12 43 -6 21 -5 22 12 8 10 -7 38 -32 62 -54 23 -22 42 -36 42
-30 0 5 -5 15 -10 20 -6 6 -19 27 -29 47 -19 37 -19 37 1 37 11 0 33 -14 48
-31 36 -42 57 -35 27 10 -12 19 -26 42 -32 50 -5 9 -28 38 -50 64 -22 27 -39
56 -37 67 3 18 -58 59 -223 150 -33 18 -63 38 -67 44 -8 12 -1 156 7 164 3 3
5 -6 5 -20 0 -40 12 -88 21 -88 5 0 9 12 9 26 0 22 2 25 15 14 13 -11 15 -4
15 52 0 36 3 86 6 111 6 45 7 46 38 40 17 -3 53 -18 81 -32 57 -31 67 -52 115
-238 16 -61 38 -133 49 -159 12 -25 21 -48 21 -50 0 -3 -12 -2 -27 2 -27 6
-27 6 -8 -9 11 -9 25 -17 31 -17 6 0 16 -11 22 -25 7 -14 23 -30 37 -37 14 -6
25 -18 25 -27 0 -23 16 -45 28 -37 17 10 2 44 -42 94 -50 58 -69 89 -56 97 5
3 14 0 20 -7 25 -30 110 -169 136 -224 15 -32 30 -61 33 -64 9 -8 31 -69 48
-133 9 -32 17 -56 19 -54 2 1 -1 31 -6 65 -6 41 -20 81 -43 119 -19 32 -38 72
-41 88 -4 17 -13 37 -21 45 -7 8 -28 45 -47 81 -20 37 -44 76 -54 87 -19 20
-61 115 -120 266 -21 54 -24 73 -16 87 9 14 7 20 -11 33 -21 14 -21 15 -2 16
19 1 19 1 2 14 -37 29 -44 309 -11 511 18 113 58 282 79 338 22 56 18 77 -6
32 -26 -49 -52 -126 -74 -225 -9 -41 -23 -93 -31 -115 l-14 -40 7 40 c9 52 8
181 -2 220 -7 28 -6 29 8 11 14 -19 15 -16 22 35 5 29 9 63 10 74 1 11 4 27 8
35 3 8 11 47 17 85 14 87 27 140 44 185 17 44 49 150 51 170 1 8 9 33 19 55
26 57 40 91 70 165 15 36 33 77 41 92 8 14 12 33 9 42 -3 9 -1 16 5 16 6 0 11
5 11 10 0 20 -25 8 -51 -23z m-149 -442 c0 -8 -4 -15 -10 -15 -5 0 -10 7 -10
15 0 8 5 15 10 15 6 0 10 -7 10 -15z m-79 -196 l-9 -34 -1 37 c-1 20 2 45 6
55 7 16 8 16 11 -3 2 -12 -1 -37 -7 -55z m-16 -155 c-8 -9 -15 -32 -16 -52 0
-20 -4 -46 -9 -57 -6 -14 -8 -5 -5 30 1 28 3 65 4 83 1 19 5 31 11 27 5 -3 9
2 8 12 0 10 0 29 2 43 1 17 5 10 11 -23 8 -38 7 -51 -6 -63z m-38 -186 c-3 -8
-6 -5 -6 6 -1 11 2 17 5 13 3 -3 4 -12 1 -19z m23 -78 c0 -5 -5 -10 -11 -10
-5 0 -7 5 -4 10 3 6 8 10 11 10 2 0 4 -4 4 -10z m-21 -86 c4 3 4 -18 1 -45 -5
-39 -4 -49 6 -45 10 4 12 -3 8 -23 -7 -31 -9 -71 -13 -181 l-3 -75 -14 70
c-15 82 -18 235 -5 235 6 0 8 30 7 68 -2 37 -2 50 1 29 2 -20 8 -35 12 -33z
m-66 -298 c-3 -10 -1 -16 4 -13 6 4 10 -21 10 -59 1 -36 4 -68 8 -72 5 -4 5 3
2 16 -3 12 -1 22 3 22 6 0 32 -111 26 -117 -7 -7 -109 23 -113 35 -9 21 17
173 33 199 8 12 14 35 15 50 1 26 2 25 10 -7 4 -19 6 -43 2 -54z m-126 -238
c-3 -8 -6 -5 -6 6 -1 11 2 17 5 13 3 -3 4 -12 1 -19z m366 -418 c1 -3 -2 -7
-6 -10 -9 -5 -30 46 -41 99 -4 19 34 -52 47 -89z m-508 -410 c-3 -5 -12 -10
-18 -10 -7 0 -6 4 3 10 19 12 23 12 15 0z"/>
<path d="M3411 4194 c0 -11 3 -14 6 -6 3 7 2 16 -1 19 -3 4 -6 -2 -5 -13z"/>
<path d="M3342 3990 c0 -14 2 -19 5 -12 2 6 2 18 0 25 -3 6 -5 1 -5 -13z"/>
<path d="M3353 3935 c-3 -9 -3 -18 -1 -21 3 -3 8 4 11 16 6 23 -1 27 -10 5z"/>
<path d="M2965 5469 c-4 -6 -5 -13 -2 -16 7 -7 27 6 27 18 0 12 -17 12 -25 -2z"/>
<path d="M3643 5443 c-7 -2 -13 -13 -13 -23 0 -10 -4 -20 -9 -22 -5 -1 -12
-16 -15 -33 -4 -16 -3 -23 0 -15 4 8 10 17 13 20 6 5 43 81 38 79 -1 0 -8 -3
-14 -6z"/>
<path d="M1462 5400 c-2 -50 11 -83 21 -56 4 9 2 16 -3 16 -5 0 -11 19 -13 43
l-4 42 -1 -45z"/>
<path d="M4570 5330 c0 -9 9 -23 20 -33 12 -10 18 -22 15 -27 -4 -6 3 -22 14
-36 25 -32 28 -11 6 32 -23 46 -55 82 -55 64z"/>
<path d="M3581 5299 c-7 -17 -11 -32 -8 -35 2 -3 10 9 17 26 17 40 8 48 -9 9z"/>
<path d="M3990 5315 c0 -5 8 -32 18 -62 14 -43 21 -53 40 -53 14 0 22 6 22 18
0 14 2 15 10 2 8 -12 10 -11 10 8 0 26 7 28 31 6 11 -9 25 -14 35 -10 15 6 15
9 -6 31 -17 18 -27 22 -40 15 -13 -7 -21 -5 -30 5 -7 8 -22 15 -33 15 -11 0
-29 7 -39 17 -10 9 -18 12 -18 8z"/>
<path d="M4420 5296 c0 -8 5 -18 10 -21 6 -3 10 3 10 14 0 12 -4 21 -10 21 -5
0 -10 -6 -10 -14z"/>
<path d="M3726 5269 c-3 -17 -3 -35 0 -40 9 -16 24 1 25 29 0 23 2 24 8 8 7
-18 8 -18 14 -2 9 23 1 36 -22 36 -13 0 -20 -10 -25 -31z"/>
<path d="M4820 5290 c0 -5 5 -10 11 -10 5 0 7 5 4 10 -3 6 -8 10 -11 10 -2 0
-4 -4 -4 -10z"/>
<path d="M3790 5268 c0 -24 17 -39 45 -41 15 -1 30 4 32 11 3 8 -6 12 -26 12
-21 0 -31 5 -31 15 0 8 -4 15 -10 15 -5 0 -10 -6 -10 -12z"/>
<path d="M4477 5260 c3 -11 9 -20 13 -20 5 0 6 9 3 20 -3 11 -9 20 -13 20 -5
0 -6 -9 -3 -20z"/>
<path d="M1847 5207 c-20 -24 -61 -82 -91 -128 -30 -46 -70 -104 -88 -129 -18
-24 -35 -49 -37 -54 -2 -5 -26 -45 -54 -90 -61 -98 -127 -211 -146 -248 -8
-16 -18 -28 -23 -28 -4 0 -8 -7 -8 -15 0 -7 -6 -18 -13 -22 -7 -4 -20 -19 -29
-33 -9 -14 -24 -34 -34 -45 -11 -12 -30 -36 -44 -55 -13 -19 -28 -39 -32 -45
-27 -33 -108 -138 -138 -178 -19 -27 -58 -78 -85 -115 -67 -88 -87 -121 -83
-134 5 -13 54 38 126 129 59 74 84 83 38 13 -14 -22 -26 -43 -26 -47 0 -3 -17
-34 -39 -67 -21 -34 -50 -82 -65 -108 -15 -27 -31 -48 -36 -48 -6 0 -10 -10
-11 -22 0 -13 -5 -32 -10 -43 -8 -17 -9 -16 -6 8 3 15 1 27 -2 27 -17 0 -161
-162 -166 -187 -4 -15 -11 -39 -16 -53 -10 -27 11 -6 116 113 56 63 77 74 47
25 -21 -35 -178 -348 -205 -408 -66 -151 -135 -342 -172 -480 -31 -114 -47
-285 -43 -455 3 -122 1 -140 -13 -143 -10 -2 -21 9 -29 30 -8 18 -27 52 -44
76 -26 37 -28 46 -18 63 7 10 8 19 3 19 -12 0 -71 -74 -71 -89 0 -14 13 -14
26 -1 6 6 9 -9 9 -40 l0 -48 -30 5 c-28 6 -29 5 -16 -11 11 -13 23 -16 44 -12
23 5 35 0 59 -24 16 -17 32 -30 36 -30 3 0 18 12 33 26 l28 26 12 -61 c6 -34
16 -64 20 -67 5 -3 9 -24 9 -47 -1 -43 -18 -77 -40 -77 -7 0 -10 -8 -7 -19 3
-13 -3 -23 -22 -31 -34 -17 -71 -21 -71 -9 0 5 7 9 15 9 13 0 14 4 5 21 -7 11
-9 27 -6 34 7 19 -20 45 -55 52 -16 3 -29 9 -29 14 0 5 -5 9 -11 9 -5 0 -24
13 -42 30 -18 16 -35 30 -39 30 -5 0 -8 8 -8 18 0 9 -7 30 -15 46 -8 16 -18
46 -21 67 -5 32 -11 39 -28 39 -13 0 -32 -11 -43 -24 -39 -45 -82 -12 -67 51
l7 28 -27 -24 -26 -24 0 -1099 0 -1098 206 0 207 0 -6 35 c-9 57 41 164 109
235 31 32 63 68 71 79 19 29 36 26 31 -4 -3 -16 1 -30 14 -42 25 -23 18 -53
-43 -177 -27 -55 -49 -105 -49 -113 0 -10 24 -13 101 -13 100 0 102 0 131 30
16 17 33 42 38 55 17 44 28 26 14 -22 -8 -25 -14 -50 -14 -55 0 -16 58 -8 64
8 6 16 8 16 24 0 11 -9 36 -16 60 -16 40 0 43 2 66 48 l24 47 13 -47 13 -48
313 0 c172 0 313 2 313 5 0 3 -17 22 -39 43 l-39 37 1 255 c0 140 2 242 4 225
3 -16 9 -34 14 -40 5 -5 9 -24 9 -42 0 -18 5 -33 10 -33 19 0 10 -39 -12 -55
-19 -13 -21 -17 -8 -25 8 -5 18 -6 23 -3 5 3 7 -3 4 -13 -33 -115 -34 -120 -6
-109 8 3 22 19 31 36 11 18 23 27 29 23 6 -3 15 0 20 7 7 11 9 10 9 -3 0 -10
9 -22 20 -28 11 -6 20 -18 21 -28 1 -11 4 -8 9 8 13 41 11 171 -5 235 -19 81
-18 96 4 60 10 -16 33 -46 50 -65 17 -19 57 -64 89 -99 31 -35 72 -70 90 -78
20 -8 32 -20 32 -33 0 -10 5 -22 10 -25 6 -4 8 -10 5 -15 -3 -4 1 -13 9 -19
11 -9 15 0 20 51 4 34 11 70 16 79 19 35 -22 110 -116 211 -19 20 -34 42 -34
48 0 5 -9 10 -21 10 -14 0 -19 5 -16 14 3 8 -1 22 -9 33 -14 17 -15 16 -9 -7
7 -24 5 -23 -26 9 -22 21 -30 35 -21 38 20 8 14 26 -8 20 -23 -6 -26 3 -8 22
11 11 10 13 -4 8 -12 -4 -15 -2 -11 9 3 8 -1 14 -8 14 -16 1 -67 76 -94 138
-10 23 -24 47 -31 53 -11 9 -11 14 1 25 13 13 33 -1 162 -109 238 -200 497
-376 520 -353 9 9 -85 97 -123 117 -60 30 -124 71 -124 80 0 5 -6 9 -12 9 -7
0 -30 16 -51 34 -21 19 -41 36 -45 38 -4 2 -29 28 -57 58 -27 30 -54 54 -58
52 -5 -1 -6 2 -2 7 3 6 -1 18 -10 28 -20 23 -106 142 -122 168 -6 11 -17 19
-23 17 -7 -2 -10 3 -7 12 3 8 -1 20 -9 26 -8 7 -14 18 -14 25 0 6 -9 20 -19
29 -11 10 -22 28 -25 42 -4 13 -11 24 -16 24 -6 0 -10 7 -10 15 0 8 -4 15 -9
15 -5 0 -19 17 -31 37 -17 29 -23 34 -31 22 -7 -11 -9 -11 -9 4 0 9 5 17 11
17 8 0 8 4 1 13 -6 6 -11 15 -12 19 -5 32 -38 87 -66 113 -26 24 -31 34 -22
43 6 6 8 15 4 19 -4 4 -10 3 -14 -3 -4 -6 -23 -19 -42 -29 -54 -27 -68 -50
-59 -99 5 -28 4 -43 -4 -48 -25 -16 -34 -24 -56 -55 -12 -18 -26 -33 -30 -33
-5 0 -12 24 -15 52 l-7 53 -18 -24 -18 -23 -21 27 c-12 15 -22 40 -22 55 0 15
-7 33 -15 40 -12 10 -22 8 -56 -14 -41 -28 -69 -29 -69 -3 0 8 -7 20 -15 27
-21 18 -19 34 7 45 24 11 40 55 28 75 -4 7 -12 10 -18 6 -6 -3 -13 3 -17 14
-4 13 -15 20 -33 20 -24 0 -25 1 -7 13 12 10 15 16 6 21 -8 5 -7 11 4 22 8 9
19 13 24 10 5 -3 14 1 21 9 9 10 9 15 1 15 -6 0 -11 4 -11 9 0 5 20 9 45 9 25
1 45 -3 45 -9 0 -6 -8 -9 -18 -7 -11 2 -20 -1 -21 -7 -2 -15 34 -14 55 3 13
10 15 16 7 19 -24 9 -13 23 11 17 19 -5 32 2 59 28 34 34 61 92 31 67 -17 -14
-18 -6 -2 37 8 23 22 37 42 44 34 12 29 17 91 -78 26 -40 49 -71 51 -69 2 2
-12 32 -30 68 -49 90 -95 210 -112 287 -41 185 -46 249 -40 512 9 323 29 518
77 755 11 55 24 125 29 155 14 89 58 279 85 368 30 95 29 119 -3 75 -21 -30
-40 -77 -68 -168 -9 -27 -33 -99 -54 -160 -53 -151 -83 -258 -156 -550 -59
-235 -136 -612 -149 -725 -3 -30 -8 -70 -11 -87 -3 -18 -1 -33 5 -33 5 0 12
24 15 53 11 83 37 188 62 243 12 27 26 74 30 103 7 56 32 148 33 121 0 -26
-47 -352 -59 -405 -28 -126 -51 -354 -48 -482 1 -82 6 -133 13 -133 5 -1 -8
-7 -30 -15 -30 -11 -41 -11 -47 -2 -13 20 -47 140 -42 148 2 4 -1 9 -7 11 -13
4 -30 51 -63 173 -41 152 -65 357 -67 560 0 109 0 110 -16 70 -11 -31 -15 -83
-14 -225 0 -102 3 -203 6 -225 2 -22 12 -98 21 -169 14 -108 14 -130 3 -137
-21 -13 -25 -11 -41 14 -20 32 -34 86 -55 220 -13 84 -22 116 -30 112 -7 -2
-13 1 -13 8 0 7 -5 4 -11 -6 -5 -9 -10 -51 -10 -92 0 -55 -3 -73 -13 -69 -20
8 -78 112 -93 167 -25 98 -14 281 25 402 36 111 110 305 157 413 71 160 236
479 286 554 22 31 39 59 39 61 0 2 52 81 115 175 63 95 143 230 179 300 35 71
73 143 83 160 10 16 45 76 78 132 33 56 67 112 75 124 8 13 27 41 43 64 15 23
27 45 27 50 0 5 11 19 25 32 14 13 23 25 21 28 -7 7 27 41 36 36 5 -3 -6 -25
-23 -48 -17 -24 -30 -50 -29 -57 2 -8 2 -27 1 -43 -1 -28 -2 -29 -15 -10 -17
23 -24 11 -28 -51 -2 -23 -8 -41 -15 -41 -23 -3 -24 -4 -13 -25 13 -24 -10
-69 -36 -69 -27 0 -44 -27 -44 -69 0 -69 32 -60 65 19 11 25 22 47 26 50 3 3
14 23 24 45 10 22 38 83 63 135 24 52 48 105 53 118 5 12 13 22 18 22 5 0 15
17 22 38 6 20 20 54 30 74 14 28 17 43 9 62 -11 30 -3 59 14 49 6 -3 8 -3 4 1
-4 5 9 31 28 58 19 28 34 54 34 59 0 22 -31 5 -63 -34z m-17 -158 c0 -5 -7 -9
-15 -9 -8 0 -15 7 -15 15 0 9 6 12 15 9 8 -4 15 -10 15 -15z m-678 -941 c-7
-7 -12 -8 -12 -2 0 14 12 26 19 19 2 -3 -1 -11 -7 -17z m-381 -2125 c13 -27
28 -50 33 -52 4 -2 2 -8 -5 -13 -10 -7 -8 -8 9 -5 17 4 22 1 22 -15 0 -10 4
-16 10 -13 5 3 12 -6 16 -21 4 -17 9 -22 14 -14 5 9 9 9 14 1 4 -6 0 -14 -8
-17 -10 -4 -16 -18 -16 -40 0 -35 21 -61 73 -92 27 -16 36 -32 17 -32 -5 0
-10 -7 -10 -15 0 -8 -6 -15 -14 -15 -21 0 -48 -30 -42 -46 3 -8 0 -11 -11 -7
-12 5 -14 1 -8 -15 4 -13 2 -22 -4 -22 -6 0 -11 9 -11 20 0 22 -10 26 -27 9
-21 -21 -36 1 -29 43 5 31 4 39 -6 35 -7 -3 -45 -20 -85 -37 l-72 -33 -35 21
c-24 14 -36 17 -39 9 -2 -7 -8 -8 -13 -3 -5 5 -4 11 4 13 6 3 10 9 7 14 -4 5
1 6 10 2 11 -4 25 4 41 20 24 26 24 27 7 61 -12 24 -25 36 -40 36 -17 0 -20 5
-16 23 4 18 3 19 -6 7 -9 -12 -13 -12 -19 -2 -5 7 -17 10 -28 7 -18 -6 -18 -6
-1 8 10 9 20 24 22 34 2 10 4 20 5 23 0 3 7 -8 15 -25 16 -35 20 -19 5 20 -6
15 -7 44 -4 66 6 33 10 39 30 39 15 0 24 6 24 16 0 13 7 11 34 -10 35 -26 80
-34 91 -16 3 5 6 25 7 45 1 19 4 35 8 35 4 0 18 -21 31 -47z m59 -3 c0 -5 -2
-10 -4 -10 -3 0 -8 5 -11 10 -3 6 -1 10 4 10 6 0 11 -4 11 -10z m278 -145 c-3
-3 -9 2 -12 12 -6 14 -5 15 5 6 7 -7 10 -15 7 -18z m-897 -38 c-10 -9 -11 -8
-5 6 3 10 9 15 12 12 3 -3 0 -11 -7 -18z m772 11 c27 -13 36 -28 16 -28 -6 0
-17 6 -25 14 -8 8 -23 12 -35 9 -15 -4 -20 -3 -15 5 9 15 25 15 59 0z m27
-172 c0 -3 -4 -8 -10 -11 -5 -3 -10 -1 -10 4 0 6 5 11 10 11 6 0 10 -2 10 -4z
m-406 -42 c16 -6 12 -24 -5 -24 -6 0 -8 4 -4 9 3 5 -3 12 -12 14 -10 3 -13 5
-6 6 6 0 18 -2 27 -5z m856 -94 l40 -20 0 -66 c0 -46 5 -70 16 -81 8 -9 13
-22 10 -30 -3 -8 -6 -23 -6 -33 0 -14 -9 -9 -41 22 -47 46 -71 95 -62 126 3
12 0 36 -6 53 -10 28 -8 49 5 49 3 0 23 -9 44 -20z m-80 -240 c0 -5 -5 -10
-11 -10 -5 0 -7 5 -4 10 3 6 8 10 11 10 2 0 4 -4 4 -10z m119 -21 c23 -29 23
-32 11 -112 -13 -83 -25 -127 -39 -137 -4 -3 -15 -41 -25 -85 -21 -93 -45
-157 -131 -350 -34 -77 -71 -160 -82 -185 -11 -25 -41 -90 -65 -145 -25 -55
-48 -110 -52 -122 -4 -13 -10 -23 -14 -23 -4 0 -20 39 -37 88 -16 48 -33 95
-39 104 -7 11 -5 28 6 55 38 92 58 147 58 161 0 33 313 582 345 606 17 12 37
122 28 156 -8 29 8 24 36 -11z m-99 -82 c0 -7 -31 -68 -70 -136 -38 -68 -70
-128 -70 -133 0 -4 -4 -8 -9 -8 -5 0 -11 -19 -15 -42 -8 -47 -26 -80 -107
-188 -63 -85 -101 -152 -120 -207 -6 -21 -18 -47 -27 -58 -14 -20 -14 -20 -9
3 8 33 -7 19 -28 -27 -10 -22 -22 -38 -26 -35 -5 3 -9 1 -9 -5 0 -6 -24 -51
-54 -101 -30 -49 -53 -90 -50 -90 2 0 -4 -9 -13 -20 -24 -28 -28 -17 -8 22 10
18 21 40 25 48 16 34 133 256 140 265 4 6 18 28 30 50 12 22 31 54 41 72 12
19 16 34 10 37 -16 10 -123 -148 -174 -256 -10 -21 -26 -43 -37 -51 -11 -8
-17 -16 -14 -20 3 -3 1 -14 -5 -24 -9 -15 -10 -12 -11 20 0 21 5 37 11 37 7 0
5 10 -5 25 -17 26 -20 106 -7 185 6 37 22 64 86 140 43 52 83 100 89 106 6 6
29 34 51 61 22 27 66 68 97 89 32 21 58 42 58 47 0 4 5 7 11 7 12 0 189 180
189 192 0 5 7 8 15 8 8 0 15 -6 15 -13z m258 -222 c17 -55 34 -122 38 -150 4
-27 9 -57 10 -65 1 -8 8 -40 15 -70 8 -36 9 -72 4 -105 l-8 -50 -9 50 c-4 28
-10 82 -12 120 -2 39 -11 95 -20 125 -8 30 -27 93 -41 138 -13 46 -27 107 -30
135 l-6 52 15 -40 c8 -22 28 -85 44 -140z m-1598 -72 c0 -29 -2 -29 -19 5 -10
18 -9 22 4 22 10 0 15 -9 15 -27z"/>
<path d="M800 1875 c0 -9 7 -18 15 -21 8 -4 15 -15 15 -25 0 -23 15 -25 24 -4
3 8 1 15 -4 15 -6 0 -9 5 -7 12 1 7 -5 13 -13 13 -8 1 -14 6 -12 13 1 7 -2 12
-8 12 -5 0 -10 -7 -10 -15z"/>
<path d="M660 1640 c-20 -12 -10 -19 14 -10 11 3 15 9 10 13 -6 3 -16 2 -24
-3z"/>
<path d="M800 1600 c0 -5 5 -10 11 -10 5 0 7 5 4 10 -3 6 -8 10 -11 10 -2 0
-4 -4 -4 -10z"/>
<path d="M1280 5175 c0 -30 11 -32 33 -7 23 25 21 32 -8 32 -20 0 -25 -5 -25
-25z"/>
<path d="M1425 5171 c-3 -5 -1 -12 5 -16 5 -3 10 1 10 9 0 18 -6 21 -15 7z"/>
<path d="M5606 5102 c-22 -43 -34 -81 -33 -104 1 -29 4 -35 14 -26 7 5 10 14
7 20 -3 5 2 21 12 36 10 15 24 45 30 67 6 22 14 48 19 58 4 10 3 17 -4 17 -6
0 -26 -31 -45 -68z"/>
<path d="M2276 5055 c-3 -8 -1 -15 4 -15 6 0 10 7 10 15 0 8 -2 15 -4 15 -2 0
-6 -7 -10 -15z"/>
<path d="M2265 5007 c-4 -10 -5 -21 -1 -24 10 -10 18 4 13 24 -4 17 -4 17 -12
0z"/>
<path d="M3311 4894 c0 -11 3 -14 6 -6 3 7 2 16 -1 19 -3 4 -6 -2 -5 -13z"/>
<path d="M1585 4720 c-3 -5 -1 -10 4 -10 6 0 11 5 11 10 0 6 -2 10 -4 10 -3 0
-8 -4 -11 -10z"/>
<path d="M4770 4676 c0 -14 5 -28 10 -31 6 -3 10 5 10 19 0 14 -4 28 -10 31
-6 3 -10 -5 -10 -19z"/>
<path d="M4440 4615 c0 -14 5 -25 10 -25 6 0 10 11 10 25 0 14 -4 25 -10 25
-5 0 -10 -11 -10 -25z"/>
<path d="M3770 4622 c0 -5 7 -13 16 -16 10 -4 14 -1 12 6 -5 15 -28 23 -28 10z"/>
<path d="M4236 4533 c-9 -120 -24 -214 -38 -240 -12 -23 2 -53 25 -53 5 0 28
-18 49 -40 22 -22 41 -40 44 -40 2 0 4 10 4 21 0 18 2 19 15 9 13 -11 15 -8
15 19 0 17 -4 39 -10 49 -11 19 -27 90 -41 175 -10 65 -35 155 -48 175 -5 8
-11 -21 -15 -75z"/>
<path d="M4417 4500 c13 -199 8 -523 -10 -615 -30 -157 -67 -366 -67 -378 1
-35 30 35 48 116 44 198 50 233 68 387 21 191 0 569 -35 603 -10 9 -11 -15 -4
-113z"/>
<path d="M3926 4535 c17 -41 17 -48 4 -40 -6 3 -10 -4 -10 -16 0 -12 3 -19 7
-16 9 9 53 -33 53 -50 0 -7 5 -13 10 -13 6 0 10 -6 10 -12 1 -15 80 -72 80
-58 0 6 7 10 16 10 11 0 14 8 12 26 -3 28 -7 31 -69 58 -24 10 -41 27 -50 48
-7 18 -28 47 -46 65 l-32 32 15 -34z"/>
<path d="M3233 4450 c-16 -45 -31 -166 -38 -307 -5 -94 -4 -113 8 -113 16 0
27 59 27 150 0 31 5 93 11 136 6 44 9 100 7 124 l-3 45 -12 -35z"/>
<path d="M2125 4267 c-4 -10 -5 -21 -1 -24 10 -10 18 4 13 24 -4 17 -4 17 -12
0z"/>
<path d="M2930 4230 c0 -6 7 -10 15 -10 8 0 15 2 15 4 0 2 -7 6 -15 10 -8 3
-15 1 -15 -4z"/>
<path d="M2120 4177 c0 -8 9 -22 20 -32 21 -19 26 -7 12 25 -9 19 -32 24 -32
7z"/>
<path d="M2861 4064 c0 -11 3 -14 6 -6 3 7 2 16 -1 19 -3 4 -6 -2 -5 -13z"/>
<path d="M3128 3843 c6 -2 18 -2 25 0 6 3 1 5 -13 5 -14 0 -19 -2 -12 -5z"/>
<path d="M3650 3814 c0 -16 5 -36 10 -44 6 -10 7 -2 3 25 -7 49 -13 58 -13 19z"/>
<path d="M3655 3740 c4 -6 8 -31 9 -53 1 -23 5 -49 8 -57 3 -8 11 -46 18 -85
7 -38 18 -101 26 -140 7 -38 13 -79 13 -90 0 -17 10 -51 54 -177 13 -37 23
-35 31 5 7 35 -6 82 -35 132 -10 17 -25 62 -34 100 -8 39 -20 88 -26 109 -6
22 -13 72 -15 110 -4 76 -24 148 -44 154 -8 3 -10 0 -5 -8z"/>
<path d="M1876 3665 c-3 -9 -6 -22 -5 -28 0 -7 5 -1 10 12 5 13 8 26 5 28 -2
2 -6 -3 -10 -12z"/>
<path d="M5453 3640 c0 -25 2 -35 4 -22 2 12 2 32 0 45 -2 12 -4 2 -4 -23z"/>
<path d="M5573 3635 c0 -22 2 -30 4 -17 2 12 2 30 0 40 -3 9 -5 -1 -4 -23z"/>
<path d="M1891 3610 c-13 -62 -14 -137 -2 -145 16 -9 21 9 27 104 7 102 -7
125 -25 41z"/>
<path d="M1990 3623 c-15 -19 -17 -28 -9 -34 7 -4 19 -1 26 7 8 8 23 19 34 25
11 5 17 14 14 20 -11 18 -44 9 -65 -18z"/>
<path d="M2115 3639 c-4 -6 -13 -8 -21 -5 -26 10 -26 -15 0 -55 16 -23 34 -39
46 -39 11 0 20 -5 20 -12 0 -6 3 -8 6 -5 4 4 2 13 -5 20 -6 8 -9 21 -5 30 3 8
0 18 -7 23 -9 5 -10 2 -6 -9 10 -27 -1 -20 -17 10 -12 24 -12 29 3 40 9 7 11
12 4 13 -6 0 -15 -5 -18 -11z"/>
<path d="M5420 3589 c0 -5 5 -7 10 -4 6 3 10 8 10 11 0 2 -4 4 -10 4 -5 0 -10
-5 -10 -11z"/>
<path d="M1851 3543 c-1 -6 -4 -20 -7 -30 -5 -17 -5 -17 6 0 6 10 9 23 6 30
-3 9 -5 9 -5 0z"/>
<path d="M6096 3515 c4 -16 11 -34 16 -40 7 -7 8 -1 3 15 -12 40 -26 59 -19
25z"/>
<path d="M1110 3523 c-8 -3 -23 -12 -33 -21 -9 -8 -27 -20 -40 -27 -12 -6 -21
-19 -21 -28 1 -10 -12 -32 -29 -50 -17 -18 -27 -29 -23 -25 5 4 25 -1 46 -12
34 -17 39 -17 59 -4 23 17 101 118 101 132 0 9 -33 43 -41 41 -2 0 -11 -3 -19
-6z"/>
<path d="M1180 3520 c0 -5 5 -10 10 -10 6 0 10 5 10 10 0 6 -4 10 -10 10 -5 0
-10 -4 -10 -10z"/>
<path d="M2450 3483 c0 -15 -2 -16 -10 -3 -8 13 -10 12 -11 -5 -3 -37 3 -80
12 -89 5 -6 9 2 9 22 0 18 5 32 10 32 6 0 10 14 10 30 0 17 -4 30 -10 30 -5 0
-10 -8 -10 -17z"/>
<path d="M1970 3431 c0 -23 5 -41 10 -41 6 0 10 15 10 34 0 19 -4 38 -10 41
-6 4 -10 -10 -10 -34z"/>
<path d="M3075 3460 c-3 -5 1 -10 10 -10 9 0 13 5 10 10 -3 6 -8 10 -10 10 -2
0 -7 -4 -10 -10z"/>
<path d="M3090 3440 c-12 -8 -11 -10 8 -10 12 0 22 5 22 10 0 13 -11 13 -30 0z"/>
<path d="M575 3409 c-138 -126 -150 -142 -48 -67 28 22 54 46 57 55 8 19 4 24
-9 12z"/>
<path d="M2102 3402 c-18 -14 -23 -26 -20 -52 4 -47 28 -52 28 -6 0 25 6 40
20 48 11 7 20 16 20 20 0 14 -24 8 -48 -10z"/>
<path d="M1997 3373 c-4 -3 -7 -11 -7 -17 0 -6 5 -5 12 2 6 6 9 14 7 17 -3 3
-9 2 -12 -2z"/>
<path d="M5588 3341 c-5 -18 -8 -81 -9 -140 -1 -111 -25 -397 -28 -323 0 23
-5 42 -10 42 -5 0 -9 -78 -8 -182 1 -101 -2 -214 -7 -253 -5 -38 -6 -67 -2
-64 7 6 21 103 36 239 14 133 31 235 42 248 6 7 17 36 24 65 7 28 20 77 28
107 30 105 17 108 -20 4 -13 -37 -27 -71 -31 -75 -4 -4 -7 54 -5 129 2 75 2
160 0 187 -3 48 -3 49 -10 16z"/>
<path d="M6194 3326 c-4 -10 -2 -62 5 -117 6 -55 11 -130 11 -167 0 -37 3 -84
6 -104 l7 -38 88 0 89 0 0 184 0 184 -47 15 c-27 8 -64 18 -83 22 -19 4 -43
14 -52 22 -16 14 -18 14 -24 -1z"/>
<path d="M6102 3318 c-7 -7 -12 -8 -12 -3 0 5 -16 -14 -35 -41 -19 -27 -35
-53 -35 -57 0 -35 -148 -98 -216 -93 -30 3 -33 -1 -63 -65 -22 -47 -30 -76
-26 -96 3 -15 11 -59 17 -96 11 -72 24 -89 78 -102 19 -4 38 3 78 32 28 21 55
48 58 60 3 12 12 27 20 34 8 6 14 24 14 40 0 28 2 29 45 29 31 0 55 -7 75 -22
16 -12 33 -19 36 -15 14 13 16 159 5 268 -13 124 -20 146 -39 127z"/>
<path d="M93 3234 c-7 -7 -13 -18 -13 -23 0 -5 -7 -16 -15 -24 -8 -8 -16 -29
-17 -45 -1 -20 -6 -28 -15 -25 -10 4 -11 -4 -7 -28 l5 -34 -15 25 -15 25 -1
-38 c0 -23 4 -36 10 -32 5 3 10 1 10 -4 0 -6 -3 -11 -7 -11 -5 0 -9 -14 -10
-30 -1 -17 1 -30 5 -30 15 0 30 16 37 40 4 14 15 31 24 38 9 8 10 11 4 7 -16
-7 -16 -4 -3 30 5 14 14 24 19 21 7 -5 20 119 16 150 0 1 -6 -4 -12 -12z"/>
<path d="M352 3215 c-22 -10 -38 -27 -48 -52 -9 -20 -27 -51 -40 -68 -13 -18
-24 -37 -24 -44 0 -7 -4 -10 -8 -7 -4 2 -13 -8 -20 -24 -7 -15 -24 -40 -37
-54 -14 -15 -25 -37 -25 -49 0 -21 -59 -132 -60 -112 0 6 -6 -1 -13 -15 -7
-14 -23 -26 -35 -28 -24 -4 -31 -22 -7 -22 8 0 22 -14 31 -31 12 -25 18 -29
25 -18 7 12 9 11 9 -2 0 -9 -11 -21 -25 -27 -29 -13 -37 -59 -9 -48 13 5 15 1
10 -19 -4 -14 -2 -25 4 -25 5 0 10 9 10 20 0 30 18 24 23 -7 3 -16 4 -1 4 32
0 33 3 71 8 84 5 17 4 21 -4 16 -12 -7 -41 11 -41 25 0 4 12 11 27 15 33 8 43
21 43 58 0 48 120 265 139 252 5 -2 20 12 33 33 14 20 37 55 51 78 39 59 37
64 -21 39z"/>
<path d="M501 3153 c-12 -27 -29 -59 -37 -73 -23 -40 -92 -195 -100 -224 -3
-15 -2 -26 4 -26 14 0 129 230 153 305 22 71 21 65 10 65 -5 0 -18 -21 -30
-47z"/>
<path d="M4242 3165 c0 -16 2 -22 5 -12 2 9 2 23 0 30 -3 6 -5 -1 -5 -18z"/>
<path d="M2758 3134 c-11 -10 3 -34 19 -34 8 0 13 7 11 17 -3 18 -20 27 -30
17z"/>
<path d="M3120 3114 c0 -22 2 -24 14 -14 8 6 12 18 9 26 -9 23 -23 16 -23 -12z"/>
<path d="M3820 3125 c0 -8 4 -15 10 -15 5 0 7 7 4 15 -4 8 -8 15 -10 15 -2 0
-4 -7 -4 -15z"/>
<path d="M4285 3079 c-10 -15 3 -25 16 -12 7 7 7 13 1 17 -6 3 -14 1 -17 -5z"/>
<path d="M111 3034 c0 -11 3 -14 6 -6 3 7 2 16 -1 19 -3 4 -6 -2 -5 -13z"/>
<path d="M3880 2993 c0 -6 6 -18 14 -25 7 -8 21 -28 30 -46 9 -18 21 -32 27
-32 12 0 -24 64 -53 95 -10 11 -18 14 -18 8z"/>
<path d="M5681 2988 c-1 -9 -5 -18 -9 -20 -12 -5 -54 -68 -45 -68 14 1 65 80
60 93 -3 7 -6 5 -6 -5z"/>
<path d="M3145 2850 c3 -5 10 -10 16 -10 5 0 9 5 9 10 0 6 -7 10 -16 10 -8 0
-12 -4 -9 -10z"/>
<path d="M6180 2733 c-18 -122 -46 -218 -81 -282 -31 -54 -35 -82 -5 -37 29
46 64 133 79 202 17 74 32 204 25 204 -3 0 -11 -39 -18 -87z"/>
<path d="M2400 2752 c0 -10 5 -23 12 -30 9 -9 9 -12 -3 -12 -8 0 -20 5 -27 12
-7 7 -12 9 -12 5 0 -4 21 -29 47 -54 26 -26 43 -38 38 -28 -4 11 -8 31 -9 45
-1 14 -7 31 -13 38 -7 7 -13 20 -13 28 0 8 -4 14 -10 14 -5 0 -10 -8 -10 -18z"/>
<path d="M2946 2742 c-4 -6 2 -28 13 -49 11 -21 20 -32 21 -25 0 6 7 12 15 12
17 0 19 9 6 28 -6 11 -10 10 -16 -5 -6 -15 -9 -12 -19 16 -8 21 -15 30 -20 23z"/>
<path d="M0 2714 c0 -8 5 -12 10 -9 6 4 8 11 5 16 -9 14 -15 11 -15 -7z"/>
<path d="M3112 2673 c-10 -4 -7 -9 8 -20 12 -8 24 -12 28 -9 9 10 -21 34 -36
29z"/>
<path d="M4425 2631 c-3 -5 -1 -12 5 -16 12 -7 30 2 30 16 0 12 -27 12 -35 0z"/>
<path d="M180 2599 c0 -5 5 -7 10 -4 6 3 10 8 10 11 0 2 -4 4 -10 4 -5 0 -10
-5 -10 -11z"/>
<path d="M4376 2595 c-3 -9 0 -15 9 -15 8 0 15 7 15 15 0 8 -4 15 -9 15 -5 0
-11 -7 -15 -15z"/>
<path d="M2717 2555 c7 -49 22 -90 29 -83 3 3 -4 32 -15 64 -17 50 -20 53 -14
19z"/>
<path d="M4080 2550 c0 -18 7 -20 56 -20 34 0 53 4 49 10 -3 6 -21 10 -40 10
-19 0 -37 5 -40 10 -10 17 -25 11 -25 -10z"/>
<path d="M2753 2438 c2 -7 7 -24 11 -38 6 -23 5 -23 -22 8 -17 19 -32 30 -35
24 -8 -12 101 -142 119 -142 19 0 18 3 -9 43 -14 20 -29 32 -37 29 -12 -4 -13
-3 -3 10 11 12 10 21 -3 47 -15 30 -31 44 -21 19z"/>
<path d="M3887 2422 c-22 -24 -21 -32 1 -32 24 1 55 26 47 39 -10 16 -30 13
-48 -7z"/>
<path d="M5511 2394 c0 -11 3 -14 6 -6 3 7 2 16 -1 19 -3 4 -6 -2 -5 -13z"/>
<path d="M310 2350 c-11 -7 -5 -10 23 -10 20 0 37 5 37 10 0 13 -40 13 -60 0z"/>
<path d="M5502 2340 c0 -14 2 -19 5 -12 2 6 2 18 0 25 -3 6 -5 1 -5 -13z"/>
<path d="M3180 2223 c0 -4 17 -19 36 -31 28 -19 41 -22 58 -14 20 9 19 10 -15
24 -55 24 -79 30 -79 21z"/>
<path d="M290 2180 c0 -5 5 -10 11 -10 5 0 7 5 4 10 -3 6 -8 10 -11 10 -2 0
-4 -4 -4 -10z"/>
<path d="M3460 2149 c0 -5 8 -9 18 -9 9 0 30 -7 47 -16 42 -22 102 -2 64 22
-17 10 -129 13 -129 3z"/>
<path d="M1277 1953 c-10 -20 -5 -62 8 -73 13 -11 15 -6 15 34 0 40 -12 60
-23 39z"/>
<path d="M1262 1853 c-5 -9 -6 -29 -2 -44 5 -15 6 -30 3 -33 -14 -13 9 -54 33
-60 41 -11 66 2 58 27 -6 19 -5 20 9 8 9 -7 14 -17 11 -22 -3 -5 1 -12 9 -15
9 -3 21 -19 27 -35 7 -16 16 -29 21 -29 13 0 20 18 9 22 -6 2 -12 20 -13 41
-2 30 -9 42 -39 62 -20 14 -41 25 -46 25 -5 0 -15 7 -22 15 -7 9 -19 14 -26
11 -14 -5 -27 20 -18 35 3 5 3 9 0 9 -3 0 -9 -7 -14 -17z m63 -100 c5 -17 2
-23 -9 -23 -18 0 -36 30 -36 62 0 22 0 22 19 3 10 -11 22 -30 26 -42z"/>
<path d="M1055 1700 c-3 -5 -1 -10 4 -10 6 0 11 5 11 10 0 6 -2 10 -4 10 -3 0
-8 -4 -11 -10z"/>
<path d="M1084 1546 c1 -16 6 -22 18 -18 18 4 14 28 -7 35 -8 4 -12 -2 -11
-17z"/>
<path d="M1860 1550 c0 -5 6 -10 14 -10 8 0 18 5 21 10 3 6 -3 10 -14 10 -12
0 -21 -4 -21 -10z"/>
<path d="M1940 1540 c0 -5 7 -10 15 -10 8 0 15 5 15 10 0 6 -7 10 -15 10 -8 0
-15 -4 -15 -10z"/>
<path d="M3533 1526 c-5 -8 -48 -44 -96 -81 -133 -98 -157 -119 -157 -132 0
-23 33 -3 164 97 41 31 126 113 126 121 0 15 -28 10 -37 -5z"/>
<path d="M1276 1523 c-11 -11 -6 -23 9 -23 8 0 15 4 15 9 0 13 -16 22 -24 14z"/>
<path d="M1948 1483 c7 -3 16 -2 19 1 4 3 -2 6 -13 5 -11 0 -14 -3 -6 -6z"/>
<path d="M1290 1436 c-7 -9 -8 -21 -3 -30 7 -13 10 -13 28 1 14 11 16 17 7 20
-6 3 -10 9 -6 14 9 15 -13 10 -26 -5z m20 -16 c0 -5 -4 -10 -10 -10 -5 0 -10
5 -10 10 0 6 5 10 10 10 6 0 10 -4 10 -10z"/>
<path d="M2011 1437 c2 -1 13 -9 24 -17 19 -14 19 -14 6 3 -7 9 -18 17 -24 17
-6 0 -8 -1 -6 -3z"/>
<path d="M5441 1324 c0 -11 3 -14 6 -6 3 7 2 16 -1 19 -3 4 -6 -2 -5 -13z"/>
<path d="M5452 1275 c0 -11 6 -42 13 -70 7 -27 13 -41 13 -30 0 11 -6 43 -13
70 -7 28 -13 41 -13 30z"/>
<path d="M3188 1202 c-8 -9 -48 -42 -88 -72 -85 -64 -103 -81 -96 -87 12 -12
218 158 205 171 -3 3 -12 -2 -21 -12z"/>
<path d="M5481 1134 c0 -11 3 -14 6 -6 3 7 2 16 -1 19 -3 4 -6 -2 -5 -13z"/>
<path d="M2984 1092 c-13 -9 -44 -54 -44 -64 0 -19 19 -5 44 32 25 38 25 49 0
32z"/>
<path d="M3710 229 c0 -5 5 -7 10 -4 6 3 10 8 10 11 0 2 -4 4 -10 4 -5 0 -10
-5 -10 -11z"/>
<path d="M2087 43 c6 -41 10 -49 19 -41 8 8 -7 78 -16 78 -5 0 -6 -17 -3 -37z"/>
<path d="M5337 45 c-23 -49 -21 -57 4 -16 11 18 19 37 17 43 -2 5 -11 -7 -21
-27z"/>
</g>
</svg>
